<?xml version="1.0" encoding="UTF-8" standalone="no"?>
<!-- Created with Inkscape (http://www.inkscape.org/) -->

<svg
   inkscape:version="1.1 (c68e22c387, 2021-05-23)"
   sodipodi:docname="two_rods.svg"
   viewBox="0 0 604.724 340.15732"
   height="340.15732"
   width="604.724"
   xml:space="preserve"
   id="svg9"
   version="1.1"
   xmlns:inkscape="http://www.inkscape.org/namespaces/inkscape"
   xmlns:sodipodi="http://sodipodi.sourceforge.net/DTD/sodipodi-0.dtd"
   xmlns:xlink="http://www.w3.org/1999/xlink"
   xmlns="http://www.w3.org/2000/svg"
   xmlns:svg="http://www.w3.org/2000/svg"><defs
     id="defs13"><marker
   id="ExperimentalArrow"
   refX="5.0"
   refY="3.0"
   orient="auto-start-reverse"
   inkscape:stockid="ExperimentalArrow"
   inkscape:isstock="true"><path
     style="fill:context-stroke"
     d="m 10,3 -10,3 0,-6 z"
     id="path12852" /></marker><marker
   style="overflow:visible"
   id="TriangleInL"
   refX="0.0"
   refY="0.0"
   orient="auto"
   inkscape:stockid="TriangleInL"
   inkscape:isstock="true"><path
     transform="scale(-0.8)"
     style="fill-rule:evenodd;fill:context-stroke;stroke:context-stroke;stroke-width:1.0pt"
     d="M 5.77,0.0 L -2.88,5.0 L -2.88,-5.0 L 5.77,0.0 z "
     id="path12732" /></marker><marker
   style="overflow:visible"
   id="Arrow2Lstart"
   refX="0.0"
   refY="0.0"
   orient="auto"
   inkscape:stockid="Arrow2Lstart"
   inkscape:isstock="true"><path
     transform="scale(1.1) translate(1,0)"
     d="M 8.7185878,4.0337352 L -2.2072895,0.016013256 L 8.7185884,-4.0017078 C 6.9730900,-1.6296469 6.9831476,1.6157441 8.7185878,4.0337352 z "
     style="fill-rule:evenodd;fill:context-stroke;stroke-width:0.62500000;stroke-linejoin:round"
     id="path12617" /></marker><marker
   style="overflow:visible"
   id="Arrow1Mstart"
   refX="0.0"
   refY="0.0"
   orient="auto"
   inkscape:stockid="Arrow1Mstart"
   inkscape:isstock="true"><path
     transform="scale(0.4) translate(10,0)"
     style="fill-rule:evenodd;fill:context-stroke;stroke:context-stroke;stroke-width:1.0pt"
     d="M 0.0,0.0 L 5.0,-5.0 L -12.5,0.0 L 5.0,5.0 L 0.0,0.0 z "
     id="path12605" /></marker><marker
   style="overflow:visible"
   id="marker14287"
   refX="0.0"
   refY="0.0"
   orient="auto"
   inkscape:stockid="Arrow1Lstart"
   inkscape:isstock="true"><path
     transform="scale(0.8) translate(12.5,0)"
     style="fill-rule:evenodd;fill:context-stroke;stroke:context-stroke;stroke-width:1.0pt"
     d="M 0.0,0.0 L 5.0,-5.0 L -12.5,0.0 L 5.0,5.0 L 0.0,0.0 z "
     id="path14285" /></marker><marker
   style="overflow:visible"
   id="marker14277"
   refX="0.0"
   refY="0.0"
   orient="auto"
   inkscape:stockid="Arrow1Lstart"
   inkscape:isstock="true"><path
     transform="scale(0.8) translate(12.5,0)"
     style="fill-rule:evenodd;fill:context-stroke;stroke:context-stroke;stroke-width:1.0pt"
     d="M 0.0,0.0 L 5.0,-5.0 L -12.5,0.0 L 5.0,5.0 L 0.0,0.0 z "
     id="path14275" /></marker><marker
   style="overflow:visible"
   id="Arrow1Lstart"
   refX="0.0"
   refY="0.0"
   orient="auto"
   inkscape:stockid="Arrow1Lstart"
   inkscape:isstock="true"><path
     transform="scale(0.8) translate(12.5,0)"
     style="fill-rule:evenodd;fill:context-stroke;stroke:context-stroke;stroke-width:1.0pt"
     d="M 0.0,0.0 L 5.0,-5.0 L -12.5,0.0 L 5.0,5.0 L 0.0,0.0 z "
     id="path12599" /></marker><marker
   style="overflow:visible;"
   id="Arrow2Lend"
   refX="0.0"
   refY="0.0"
   orient="auto"
   inkscape:stockid="Arrow2Lend"
   inkscape:isstock="true"><path
     transform="scale(1.1) rotate(180) translate(1,0)"
     d="M 8.7185878,4.0337352 L -2.2072895,0.016013256 L 8.7185884,-4.0017078 C 6.9730900,-1.6296469 6.9831476,1.6157441 8.7185878,4.0337352 z "
     style="fill-rule:evenodd;fill:context-stroke;stroke-width:0.62500000;stroke-linejoin:round;"
     id="path12620" /></marker><marker
   style="overflow:visible;"
   id="Arrow1Lend"
   refX="0.0"
   refY="0.0"
   orient="auto"
   inkscape:stockid="Arrow1Lend"
   inkscape:isstock="true"><path
     transform="scale(0.8) rotate(180) translate(12.5,0)"
     style="fill-rule:evenodd;fill:context-stroke;stroke:context-stroke;stroke-width:1.0pt;"
     d="M 0.0,0.0 L 5.0,-5.0 L -12.5,0.0 L 5.0,5.0 L 0.0,0.0 z "
     id="path12602" /></marker><clipPath
   clipPathUnits="userSpaceOnUse"
   id="clipPath71"><path
     d="M 0,0 H 425.2 V 108 H 0 Z"
     id="path69" /></clipPath><clipPath
   clipPathUnits="userSpaceOnUse"
   id="clipPath155"><path
     d="M 0,108 H 425.2 V 0 H 0 Z"
     id="path153" /></clipPath><clipPath
   clipPathUnits="userSpaceOnUse"
   id="clipPath267"><path
     d="M 0,108 H 425.2 V 0 H 0 Z"
     id="path265" /></clipPath><clipPath
   clipPathUnits="userSpaceOnUse"
   id="clipPath369"><path
     d="M 0,108 H 425.2 V 0 H 0 Z"
     id="path367" /></clipPath><clipPath
   clipPathUnits="userSpaceOnUse"
   id="clipPath421"><path
     d="M 0,108 H 425.2 V 0 H 0 Z"
     id="path419" /></clipPath><g
   id="g9141">
      <symbol
   overflow="visible"
   id="symbol3403">
        <path
   style="stroke:none;"
   d=""
   id="path6363" />
      </symbol>
      <symbol
   overflow="visible"
   id="symbol8454">
        <path
   style="stroke:none;"
   d="M 2.640625 -3.71875 L 3.765625 -3.71875 C 3.4375 -2.25 3.34375 -1.8125 3.34375 -1.140625 C 3.34375 -1 3.34375 -0.734375 3.421875 -0.390625 C 3.53125 0.046875 3.640625 0.109375 3.78125 0.109375 C 3.984375 0.109375 4.203125 -0.0625 4.203125 -0.265625 C 4.203125 -0.328125 4.203125 -0.34375 4.140625 -0.484375 C 3.84375 -1.203125 3.84375 -1.859375 3.84375 -2.140625 C 3.84375 -2.65625 3.921875 -3.203125 4.03125 -3.71875 L 5.15625 -3.71875 C 5.296875 -3.71875 5.65625 -3.71875 5.65625 -4.0625 C 5.65625 -4.296875 5.4375 -4.296875 5.25 -4.296875 L 1.90625 -4.296875 C 1.6875 -4.296875 1.3125 -4.296875 0.875 -3.828125 C 0.53125 -3.4375 0.265625 -2.984375 0.265625 -2.9375 C 0.265625 -2.921875 0.265625 -2.828125 0.390625 -2.828125 C 0.46875 -2.828125 0.484375 -2.875 0.546875 -2.953125 C 1.03125 -3.71875 1.609375 -3.71875 1.8125 -3.71875 L 2.375 -3.71875 C 2.0625 -2.515625 1.53125 -1.3125 1.109375 -0.40625 C 1.03125 -0.25 1.03125 -0.234375 1.03125 -0.15625 C 1.03125 0.03125 1.1875 0.109375 1.3125 0.109375 C 1.609375 0.109375 1.6875 -0.171875 1.8125 -0.53125 C 1.953125 -1 1.953125 -1.015625 2.078125 -1.515625 Z M 2.640625 -3.71875 "
   id="path6537" />
      </symbol>
      <symbol
   overflow="visible"
   id="symbol9488">
        <path
   style="stroke:none;"
   d="M 2.859375 -6.8125 C 2.859375 -6.8125 2.859375 -6.921875 2.734375 -6.921875 C 2.5 -6.921875 1.78125 -6.84375 1.515625 -6.8125 C 1.4375 -6.8125 1.328125 -6.796875 1.328125 -6.625 C 1.328125 -6.5 1.421875 -6.5 1.5625 -6.5 C 2.046875 -6.5 2.0625 -6.4375 2.0625 -6.328125 L 2.03125 -6.125 L 0.59375 -0.390625 C 0.546875 -0.25 0.546875 -0.234375 0.546875 -0.171875 C 0.546875 0.0625 0.75 0.109375 0.84375 0.109375 C 0.96875 0.109375 1.109375 0.015625 1.171875 -0.09375 C 1.21875 -0.1875 1.671875 -2.03125 1.734375 -2.28125 C 2.078125 -2.25 2.890625 -2.09375 2.890625 -1.4375 C 2.890625 -1.359375 2.890625 -1.328125 2.859375 -1.21875 C 2.84375 -1.109375 2.828125 -0.984375 2.828125 -0.875 C 2.828125 -0.296875 3.21875 0.109375 3.734375 0.109375 C 4.03125 0.109375 4.3125 -0.046875 4.53125 -0.421875 C 4.78125 -0.859375 4.890625 -1.40625 4.890625 -1.421875 C 4.890625 -1.53125 4.796875 -1.53125 4.765625 -1.53125 C 4.671875 -1.53125 4.65625 -1.484375 4.625 -1.34375 C 4.421875 -0.625 4.203125 -0.109375 3.765625 -0.109375 C 3.5625 -0.109375 3.4375 -0.21875 3.4375 -0.578125 C 3.4375 -0.75 3.484375 -0.984375 3.515625 -1.140625 C 3.5625 -1.3125 3.5625 -1.34375 3.5625 -1.453125 C 3.5625 -2.09375 2.9375 -2.375 2.078125 -2.5 C 2.390625 -2.671875 2.71875 -2.984375 2.9375 -3.234375 C 3.421875 -3.765625 3.875 -4.1875 4.359375 -4.1875 C 4.421875 -4.1875 4.4375 -4.1875 4.453125 -4.171875 C 4.578125 -4.15625 4.578125 -4.15625 4.671875 -4.09375 C 4.6875 -4.09375 4.6875 -4.078125 4.703125 -4.0625 C 4.234375 -4.03125 4.140625 -3.640625 4.140625 -3.515625 C 4.140625 -3.359375 4.25 -3.171875 4.515625 -3.171875 C 4.78125 -3.171875 5.0625 -3.390625 5.0625 -3.78125 C 5.0625 -4.078125 4.828125 -4.40625 4.390625 -4.40625 C 4.109375 -4.40625 3.65625 -4.328125 2.9375 -3.53125 C 2.59375 -3.15625 2.203125 -2.75 1.828125 -2.609375 Z M 2.859375 -6.8125 "
   id="path1793" />
      </symbol>
      <symbol
   overflow="visible"
   id="symbol5950">
        <path
   style="stroke:none;"
   d=""
   id="path7853" />
      </symbol>
      <symbol
   overflow="visible"
   id="symbol6395">
        <path
   style="stroke:none;"
   d="M 3.515625 -1.265625 L 3.28125 -1.265625 C 3.265625 -1.109375 3.1875 -0.703125 3.09375 -0.640625 C 3.046875 -0.59375 2.515625 -0.59375 2.40625 -0.59375 L 1.125 -0.59375 C 1.859375 -1.234375 2.109375 -1.4375 2.515625 -1.765625 C 3.03125 -2.171875 3.515625 -2.609375 3.515625 -3.265625 C 3.515625 -4.109375 2.78125 -4.625 1.890625 -4.625 C 1.03125 -4.625 0.4375 -4.015625 0.4375 -3.375 C 0.4375 -3.03125 0.734375 -2.984375 0.8125 -2.984375 C 0.96875 -2.984375 1.171875 -3.109375 1.171875 -3.359375 C 1.171875 -3.484375 1.125 -3.734375 0.765625 -3.734375 C 0.984375 -4.21875 1.453125 -4.375 1.78125 -4.375 C 2.484375 -4.375 2.84375 -3.828125 2.84375 -3.265625 C 2.84375 -2.65625 2.40625 -2.1875 2.1875 -1.9375 L 0.515625 -0.265625 C 0.4375 -0.203125 0.4375 -0.1875 0.4375 0 L 3.3125 0 Z M 3.515625 -1.265625 "
   id="path8420" />
      </symbol>
      <symbol
   overflow="visible"
   id="symbol3991">
        <path
   style="stroke:none;"
   d="M 5.359375 -2.34375 C 5.453125 -2.34375 5.609375 -2.34375 5.609375 -2.515625 C 5.609375 -2.6875 5.453125 -2.6875 5.359375 -2.6875 L 0.75 -2.6875 C 0.65625 -2.6875 0.484375 -2.6875 0.484375 -2.515625 C 0.484375 -2.34375 0.640625 -2.34375 0.75 -2.34375 Z M 5.359375 -0.8125 C 5.453125 -0.8125 5.609375 -0.8125 5.609375 -0.96875 C 5.609375 -1.15625 5.453125 -1.15625 5.359375 -1.15625 L 0.75 -1.15625 C 0.640625 -1.15625 0.484375 -1.15625 0.484375 -0.96875 C 0.484375 -0.8125 0.65625 -0.8125 0.75 -0.8125 Z M 5.359375 -0.8125 "
   id="path7312" />
      </symbol>
      <symbol
   overflow="visible"
   id="symbol7950">
        <path
   style="stroke:none;"
   d="M 2.328125 -4.4375 C 2.328125 -4.625 2.328125 -4.625 2.125 -4.625 C 1.671875 -4.1875 1.046875 -4.1875 0.765625 -4.1875 L 0.765625 -3.9375 C 0.921875 -3.9375 1.390625 -3.9375 1.765625 -4.125 L 1.765625 -0.578125 C 1.765625 -0.34375 1.765625 -0.25 1.078125 -0.25 L 0.8125 -0.25 L 0.8125 0 C 0.9375 0 1.796875 -0.03125 2.046875 -0.03125 C 2.265625 -0.03125 3.140625 0 3.296875 0 L 3.296875 -0.25 L 3.03125 -0.25 C 2.328125 -0.25 2.328125 -0.34375 2.328125 -0.578125 Z M 2.328125 -4.4375 "
   id="path5580" />
      </symbol>
      <symbol
   overflow="visible"
   id="symbol8496">
        <path
   style="stroke:none;"
   d=""
   id="path7260" />
      </symbol>
      <symbol
   overflow="visible"
   id="symbol2464">
        <path
   style="stroke:none;"
   d="M 1.3125 -3.265625 L 1.3125 -3.515625 C 1.3125 -6.03125 2.546875 -6.390625 3.0625 -6.390625 C 3.296875 -6.390625 3.71875 -6.328125 3.9375 -5.984375 C 3.78125 -5.984375 3.390625 -5.984375 3.390625 -5.546875 C 3.390625 -5.234375 3.625 -5.078125 3.84375 -5.078125 C 4 -5.078125 4.3125 -5.171875 4.3125 -5.5625 C 4.3125 -6.15625 3.875 -6.640625 3.046875 -6.640625 C 1.765625 -6.640625 0.421875 -5.359375 0.421875 -3.15625 C 0.421875 -0.484375 1.578125 0.21875 2.5 0.21875 C 3.609375 0.21875 4.5625 -0.71875 4.5625 -2.03125 C 4.5625 -3.296875 3.671875 -4.25 2.5625 -4.25 C 1.890625 -4.25 1.515625 -3.75 1.3125 -3.265625 Z M 2.5 -0.0625 C 1.875 -0.0625 1.578125 -0.65625 1.515625 -0.8125 C 1.328125 -1.28125 1.328125 -2.078125 1.328125 -2.25 C 1.328125 -3.03125 1.65625 -4.03125 2.546875 -4.03125 C 2.71875 -4.03125 3.171875 -4.03125 3.484375 -3.40625 C 3.65625 -3.046875 3.65625 -2.53125 3.65625 -2.046875 C 3.65625 -1.5625 3.65625 -1.0625 3.484375 -0.703125 C 3.1875 -0.109375 2.734375 -0.0625 2.5 -0.0625 Z M 2.5 -0.0625 "
   id="path2718" />
      </symbol>
      <symbol
   overflow="visible"
   id="symbol1699">
        <path
   style="stroke:none;"
   d="M 6.84375 -3.265625 C 7 -3.265625 7.1875 -3.265625 7.1875 -3.453125 C 7.1875 -3.65625 7 -3.65625 6.859375 -3.65625 L 0.890625 -3.65625 C 0.75 -3.65625 0.5625 -3.65625 0.5625 -3.453125 C 0.5625 -3.265625 0.75 -3.265625 0.890625 -3.265625 Z M 6.859375 -1.328125 C 7 -1.328125 7.1875 -1.328125 7.1875 -1.53125 C 7.1875 -1.71875 7 -1.71875 6.84375 -1.71875 L 0.890625 -1.71875 C 0.75 -1.71875 0.5625 -1.71875 0.5625 -1.53125 C 0.5625 -1.328125 0.75 -1.328125 0.890625 -1.328125 Z M 6.859375 -1.328125 "
   id="path4252" />
      </symbol>
      <symbol
   overflow="visible"
   id="symbol8588">
        <path
   style="stroke:none;"
   d="M 1.765625 -6.921875 L 0.328125 -6.8125 L 0.328125 -6.5 C 1.03125 -6.5 1.109375 -6.4375 1.109375 -5.9375 L 1.109375 -0.75 C 1.109375 -0.3125 1 -0.3125 0.328125 -0.3125 L 0.328125 0 C 0.65625 -0.015625 1.1875 -0.03125 1.4375 -0.03125 C 1.6875 -0.03125 2.171875 -0.015625 2.546875 0 L 2.546875 -0.3125 C 1.875 -0.3125 1.765625 -0.3125 1.765625 -0.75 Z M 1.765625 -6.921875 "
   id="path9443" />
      </symbol>
      <symbol
   overflow="visible"
   id="symbol2369">
        <path
   style="stroke:none;"
   d="M 1.765625 -4.40625 L 0.375 -4.296875 L 0.375 -3.984375 C 1.015625 -3.984375 1.109375 -3.921875 1.109375 -3.4375 L 1.109375 -0.75 C 1.109375 -0.3125 1 -0.3125 0.328125 -0.3125 L 0.328125 0 C 0.640625 -0.015625 1.1875 -0.03125 1.421875 -0.03125 C 1.78125 -0.03125 2.125 -0.015625 2.46875 0 L 2.46875 -0.3125 C 1.796875 -0.3125 1.765625 -0.359375 1.765625 -0.75 Z M 1.796875 -6.140625 C 1.796875 -6.453125 1.5625 -6.671875 1.28125 -6.671875 C 0.96875 -6.671875 0.75 -6.40625 0.75 -6.140625 C 0.75 -5.875 0.96875 -5.609375 1.28125 -5.609375 C 1.5625 -5.609375 1.796875 -5.828125 1.796875 -6.140625 Z M 1.796875 -6.140625 "
   id="path7358" />
      </symbol>
      <symbol
   overflow="visible"
   id="symbol5125">
        <path
   style="stroke:none;"
   d="M 1.09375 -3.421875 L 1.09375 -0.75 C 1.09375 -0.3125 0.984375 -0.3125 0.3125 -0.3125 L 0.3125 0 C 0.671875 -0.015625 1.171875 -0.03125 1.453125 -0.03125 C 1.703125 -0.03125 2.21875 -0.015625 2.5625 0 L 2.5625 -0.3125 C 1.890625 -0.3125 1.78125 -0.3125 1.78125 -0.75 L 1.78125 -2.59375 C 1.78125 -3.625 2.5 -4.1875 3.125 -4.1875 C 3.765625 -4.1875 3.875 -3.65625 3.875 -3.078125 L 3.875 -0.75 C 3.875 -0.3125 3.765625 -0.3125 3.09375 -0.3125 L 3.09375 0 C 3.4375 -0.015625 3.953125 -0.03125 4.21875 -0.03125 C 4.46875 -0.03125 5 -0.015625 5.328125 0 L 5.328125 -0.3125 C 4.671875 -0.3125 4.5625 -0.3125 4.5625 -0.75 L 4.5625 -2.59375 C 4.5625 -3.625 5.265625 -4.1875 5.90625 -4.1875 C 6.53125 -4.1875 6.640625 -3.65625 6.640625 -3.078125 L 6.640625 -0.75 C 6.640625 -0.3125 6.53125 -0.3125 5.859375 -0.3125 L 5.859375 0 C 6.203125 -0.015625 6.71875 -0.03125 6.984375 -0.03125 C 7.25 -0.03125 7.765625 -0.015625 8.109375 0 L 8.109375 -0.3125 C 7.59375 -0.3125 7.34375 -0.3125 7.328125 -0.609375 L 7.328125 -2.515625 C 7.328125 -3.375 7.328125 -3.671875 7.015625 -4.03125 C 6.875 -4.203125 6.546875 -4.40625 5.96875 -4.40625 C 5.140625 -4.40625 4.6875 -3.8125 4.53125 -3.421875 C 4.390625 -4.296875 3.65625 -4.40625 3.203125 -4.40625 C 2.46875 -4.40625 2 -3.984375 1.71875 -3.359375 L 1.71875 -4.40625 L 0.3125 -4.296875 L 0.3125 -3.984375 C 1.015625 -3.984375 1.09375 -3.921875 1.09375 -3.421875 Z M 1.09375 -3.421875 "
   id="path885" />
      </symbol>
      <symbol
   overflow="visible"
   id="symbol7810">
        <path
   style="stroke:none;"
   d="M 2.9375 -6.375 C 2.9375 -6.625 2.9375 -6.640625 2.703125 -6.640625 C 2.078125 -6 1.203125 -6 0.890625 -6 L 0.890625 -5.6875 C 1.09375 -5.6875 1.671875 -5.6875 2.1875 -5.953125 L 2.1875 -0.78125 C 2.1875 -0.421875 2.15625 -0.3125 1.265625 -0.3125 L 0.953125 -0.3125 L 0.953125 0 C 1.296875 -0.03125 2.15625 -0.03125 2.5625 -0.03125 C 2.953125 -0.03125 3.828125 -0.03125 4.171875 0 L 4.171875 -0.3125 L 3.859375 -0.3125 C 2.953125 -0.3125 2.9375 -0.421875 2.9375 -0.78125 Z M 2.9375 -6.375 "
   id="path357" />
      </symbol>
      <symbol
   overflow="visible"
   id="symbol7308">
        <path
   style="stroke:none;"
   d=""
   id="path5830" />
      </symbol>
      <symbol
   overflow="visible"
   id="symbol1868">
        <path
   style="stroke:none;"
   d="M 0.84375 -0.4375 C 0.828125 -0.34375 0.78125 -0.171875 0.78125 -0.15625 C 0.78125 0 0.90625 0.0625 1.015625 0.0625 C 1.140625 0.0625 1.25 -0.015625 1.296875 -0.078125 C 1.328125 -0.140625 1.375 -0.375 1.421875 -0.515625 C 1.453125 -0.640625 1.53125 -0.96875 1.5625 -1.140625 C 1.609375 -1.296875 1.65625 -1.453125 1.6875 -1.609375 C 1.765625 -1.890625 1.78125 -1.953125 1.984375 -2.234375 C 2.171875 -2.515625 2.5 -2.875 3.03125 -2.875 C 3.421875 -2.875 3.4375 -2.515625 3.4375 -2.390625 C 3.4375 -1.96875 3.140625 -1.203125 3.03125 -0.90625 C 2.953125 -0.703125 2.921875 -0.640625 2.921875 -0.53125 C 2.921875 -0.15625 3.21875 0.0625 3.578125 0.0625 C 4.28125 0.0625 4.578125 -0.890625 4.578125 -1 C 4.578125 -1.09375 4.5 -1.09375 4.46875 -1.09375 C 4.375 -1.09375 4.375 -1.046875 4.34375 -0.96875 C 4.1875 -0.40625 3.875 -0.125 3.609375 -0.125 C 3.453125 -0.125 3.421875 -0.21875 3.421875 -0.375 C 3.421875 -0.53125 3.46875 -0.625 3.59375 -0.9375 C 3.671875 -1.15625 3.953125 -1.890625 3.953125 -2.28125 C 3.953125 -2.953125 3.421875 -3.078125 3.046875 -3.078125 C 2.46875 -3.078125 2.078125 -2.71875 1.875 -2.4375 C 1.828125 -2.921875 1.421875 -3.078125 1.125 -3.078125 C 0.828125 -3.078125 0.671875 -2.859375 0.578125 -2.703125 C 0.421875 -2.4375 0.328125 -2.046875 0.328125 -2 C 0.328125 -1.921875 0.421875 -1.921875 0.453125 -1.921875 C 0.546875 -1.921875 0.546875 -1.9375 0.59375 -2.125 C 0.703125 -2.53125 0.84375 -2.875 1.109375 -2.875 C 1.296875 -2.875 1.34375 -2.71875 1.34375 -2.53125 C 1.34375 -2.40625 1.28125 -2.140625 1.21875 -1.953125 C 1.171875 -1.765625 1.109375 -1.484375 1.078125 -1.328125 Z M 0.84375 -0.4375 "
   id="path4876" />
      </symbol>
      <symbol
   overflow="visible"
   id="symbol7241">
        <path
   style="stroke:none;"
   d="M 2.1875 -4.625 C 2.1875 -4.640625 2.203125 -4.734375 2.203125 -4.734375 C 2.203125 -4.78125 2.1875 -4.84375 2.09375 -4.84375 C 1.953125 -4.84375 1.375 -4.78125 1.203125 -4.765625 C 1.15625 -4.765625 1.046875 -4.75 1.046875 -4.609375 C 1.046875 -4.515625 1.15625 -4.515625 1.234375 -4.515625 C 1.5625 -4.515625 1.5625 -4.453125 1.5625 -4.40625 C 1.5625 -4.359375 1.546875 -4.3125 1.546875 -4.25 L 0.5625 -0.3125 C 0.515625 -0.1875 0.515625 -0.171875 0.515625 -0.15625 C 0.515625 -0.046875 0.609375 0.0625 0.765625 0.0625 C 0.953125 0.0625 1.03125 -0.0625 1.078125 -0.21875 C 1.09375 -0.25 1.390625 -1.484375 1.421875 -1.578125 C 1.921875 -1.53125 2.3125 -1.359375 2.3125 -1 C 2.3125 -0.96875 2.3125 -0.9375 2.296875 -0.859375 C 2.265625 -0.765625 2.265625 -0.71875 2.265625 -0.640625 C 2.265625 -0.15625 2.671875 0.0625 3.015625 0.0625 C 3.6875 0.0625 3.890625 -0.984375 3.890625 -1 C 3.890625 -1.09375 3.8125 -1.09375 3.78125 -1.09375 C 3.6875 -1.09375 3.671875 -1.046875 3.640625 -0.921875 C 3.5625 -0.625 3.375 -0.125 3.03125 -0.125 C 2.84375 -0.125 2.78125 -0.296875 2.78125 -0.484375 C 2.78125 -0.609375 2.78125 -0.625 2.828125 -0.796875 C 2.84375 -0.828125 2.859375 -0.9375 2.859375 -1.015625 C 2.859375 -1.640625 2.03125 -1.734375 1.734375 -1.75 C 1.9375 -1.875 2.1875 -2.109375 2.3125 -2.21875 C 2.671875 -2.546875 3.015625 -2.875 3.40625 -2.875 C 3.484375 -2.875 3.578125 -2.859375 3.640625 -2.78125 C 3.34375 -2.734375 3.28125 -2.5 3.28125 -2.390625 C 3.28125 -2.25 3.390625 -2.140625 3.546875 -2.140625 C 3.75 -2.140625 3.953125 -2.296875 3.953125 -2.578125 C 3.953125 -2.8125 3.78125 -3.078125 3.421875 -3.078125 C 3.015625 -3.078125 2.65625 -2.78125 2.296875 -2.453125 C 2 -2.1875 1.78125 -1.96875 1.484375 -1.84375 Z M 2.1875 -4.625 "
   id="path1651" />
      </symbol>
      <symbol
   overflow="visible"
   id="symbol4493">
        <path
   style="stroke:none;"
   d=""
   id="path4564" />
      </symbol>
      <symbol
   overflow="visible"
   id="symbol2384">
        <path
   style="stroke:none;"
   d="M 6.40625 -1.578125 C 5.53125 -0.9375 5.421875 -0.015625 5.421875 -0.015625 C 5.421875 0.09375 5.484375 0.09375 5.578125 0.09375 C 5.703125 0.09375 5.734375 0.09375 5.765625 -0.03125 C 5.8125 -0.203125 5.921875 -0.640625 6.28125 -1.03125 C 6.6875 -1.453125 7.03125 -1.5625 7.328125 -1.65625 C 7.359375 -1.671875 7.390625 -1.703125 7.390625 -1.734375 C 7.390625 -1.8125 7.359375 -1.828125 7.265625 -1.859375 C 6.265625 -2.171875 5.90625 -2.890625 5.75 -3.5 C 5.734375 -3.578125 5.671875 -3.578125 5.578125 -3.578125 C 5.484375 -3.578125 5.421875 -3.578125 5.421875 -3.484375 C 5.421875 -3.46875 5.484375 -3 5.828125 -2.515625 C 5.984375 -2.28125 6.1875 -2.078125 6.40625 -1.921875 L 0.8125 -1.921875 C 0.703125 -1.921875 0.53125 -1.921875 0.53125 -1.75 C 0.53125 -1.578125 0.703125 -1.578125 0.8125 -1.578125 Z M 6.40625 -1.578125 "
   id="path7092" />
      </symbol>
      <symbol
   overflow="visible"
   id="symbol3319">
        <path
   style="stroke:none;"
   d="M 4.03125 -1.90625 C 3.65625 -2.34375 3.546875 -2.453125 3.28125 -2.640625 C 2.859375 -2.953125 2.40625 -3.078125 2.03125 -3.078125 C 1.15625 -3.078125 0.53125 -2.328125 0.53125 -1.5 C 0.53125 -0.6875 1.140625 0.0625 2 0.0625 C 2.96875 0.0625 3.65625 -0.71875 3.90625 -1.09375 C 4.265625 -0.65625 4.390625 -0.546875 4.640625 -0.359375 C 5.078125 -0.046875 5.515625 0.0625 5.90625 0.0625 C 6.765625 0.0625 7.390625 -0.671875 7.390625 -1.5 C 7.390625 -2.328125 6.796875 -3.078125 5.921875 -3.078125 C 4.953125 -3.078125 4.28125 -2.28125 4.03125 -1.90625 Z M 4.25 -1.65625 C 4.53125 -2.109375 5.140625 -2.8125 5.984375 -2.8125 C 6.703125 -2.8125 7.203125 -2.171875 7.203125 -1.5 C 7.203125 -0.84375 6.65625 -0.3125 6.015625 -0.3125 C 5.359375 -0.3125 4.921875 -0.84375 4.25 -1.65625 Z M 3.671875 -1.359375 C 3.40625 -0.90625 2.796875 -0.1875 1.9375 -0.1875 C 1.21875 -0.1875 0.734375 -0.828125 0.734375 -1.5 C 0.734375 -2.171875 1.28125 -2.6875 1.921875 -2.6875 C 2.5625 -2.6875 3.015625 -2.15625 3.671875 -1.359375 Z M 3.671875 -1.359375 "
   id="path1056" />
      </symbol>
      <symbol
   overflow="visible"
   id="symbol4722">
        <path
   style="stroke:none;"
   d=""
   id="path1083" />
      </symbol>
      <symbol
   overflow="visible"
   id="symbol4764">
        <path
   style="stroke:none;"
   d="M 12.625 13.953125 L 13.828125 10.765625 L 13.578125 10.765625 C 13.1875 11.796875 12.125 12.484375 10.984375 12.78125 C 10.78125 12.828125 9.796875 13.09375 7.890625 13.09375 L 1.875 13.09375 L 6.953125 7.140625 C 7.015625 7.0625 7.03125 7.03125 7.03125 6.984375 C 7.03125 6.953125 7.03125 6.921875 6.96875 6.828125 L 2.328125 0.484375 L 7.78125 0.484375 C 9.125 0.484375 10.03125 0.625 10.125 0.640625 C 10.65625 0.71875 11.53125 0.890625 12.3125 1.390625 C 12.5625 1.546875 13.234375 2 13.578125 2.796875 L 13.828125 2.796875 L 12.625 0 L 0.84375 0 C 0.609375 0 0.59375 0.015625 0.5625 0.0625 C 0.5625 0.09375 0.5625 0.296875 0.5625 0.40625 L 5.828125 7.609375 L 0.671875 13.671875 C 0.5625 13.78125 0.5625 13.84375 0.5625 13.84375 C 0.5625 13.953125 0.65625 13.953125 0.84375 13.953125 Z M 12.625 13.953125 "
   id="path8074" />
      </symbol>
    </g>
  <g
   id="g8920">
      <symbol
   overflow="visible"
   id="symbol7394">
        <path
   style="stroke:none;"
   d=""
   id="path8137" />
      </symbol>
      <symbol
   overflow="visible"
   id="symbol1601">
        <path
   style="stroke:none;"
   d="M 2.859375 -6.8125 C 2.859375 -6.8125 2.859375 -6.921875 2.734375 -6.921875 C 2.5 -6.921875 1.78125 -6.84375 1.515625 -6.8125 C 1.4375 -6.8125 1.328125 -6.796875 1.328125 -6.625 C 1.328125 -6.5 1.421875 -6.5 1.5625 -6.5 C 2.046875 -6.5 2.0625 -6.4375 2.0625 -6.328125 L 2.03125 -6.125 L 0.59375 -0.390625 C 0.546875 -0.25 0.546875 -0.234375 0.546875 -0.171875 C 0.546875 0.0625 0.75 0.109375 0.84375 0.109375 C 0.96875 0.109375 1.109375 0.015625 1.171875 -0.09375 C 1.21875 -0.1875 1.671875 -2.03125 1.734375 -2.28125 C 2.078125 -2.25 2.890625 -2.09375 2.890625 -1.4375 C 2.890625 -1.359375 2.890625 -1.328125 2.859375 -1.21875 C 2.84375 -1.109375 2.828125 -0.984375 2.828125 -0.875 C 2.828125 -0.296875 3.21875 0.109375 3.734375 0.109375 C 4.03125 0.109375 4.3125 -0.046875 4.53125 -0.421875 C 4.78125 -0.859375 4.890625 -1.40625 4.890625 -1.421875 C 4.890625 -1.53125 4.796875 -1.53125 4.765625 -1.53125 C 4.671875 -1.53125 4.65625 -1.484375 4.625 -1.34375 C 4.421875 -0.625 4.203125 -0.109375 3.765625 -0.109375 C 3.5625 -0.109375 3.4375 -0.21875 3.4375 -0.578125 C 3.4375 -0.75 3.484375 -0.984375 3.515625 -1.140625 C 3.5625 -1.3125 3.5625 -1.34375 3.5625 -1.453125 C 3.5625 -2.09375 2.9375 -2.375 2.078125 -2.5 C 2.390625 -2.671875 2.71875 -2.984375 2.9375 -3.234375 C 3.421875 -3.765625 3.875 -4.1875 4.359375 -4.1875 C 4.421875 -4.1875 4.4375 -4.1875 4.453125 -4.171875 C 4.578125 -4.15625 4.578125 -4.15625 4.671875 -4.09375 C 4.6875 -4.09375 4.6875 -4.078125 4.703125 -4.0625 C 4.234375 -4.03125 4.140625 -3.640625 4.140625 -3.515625 C 4.140625 -3.359375 4.25 -3.171875 4.515625 -3.171875 C 4.78125 -3.171875 5.0625 -3.390625 5.0625 -3.78125 C 5.0625 -4.078125 4.828125 -4.40625 4.390625 -4.40625 C 4.109375 -4.40625 3.65625 -4.328125 2.9375 -3.53125 C 2.59375 -3.15625 2.203125 -2.75 1.828125 -2.609375 Z M 2.859375 -6.8125 "
   id="path1941" />
      </symbol>
    </g>
  <g
   id="g9345">
      <symbol
   overflow="visible"
   id="symbol1253">
        <path
   style="stroke:none;"
   d=""
   id="path2816" />
      </symbol>
      <symbol
   overflow="visible"
   id="symbol5385">
        <path
   style="stroke:none;"
   d="M 4.53125 -4.984375 C 4.53125 -5.640625 4.359375 -7.03125 3.34375 -7.03125 C 1.953125 -7.03125 0.421875 -4.21875 0.421875 -1.9375 C 0.421875 -1 0.703125 0.109375 1.609375 0.109375 C 3.015625 0.109375 4.53125 -2.75 4.53125 -4.984375 Z M 1.46875 -3.625 C 1.640625 -4.25 1.84375 -5.046875 2.25 -5.765625 C 2.515625 -6.25 2.875 -6.8125 3.328125 -6.8125 C 3.8125 -6.8125 3.875 -6.171875 3.875 -5.609375 C 3.875 -5.109375 3.796875 -4.609375 3.5625 -3.625 Z M 3.46875 -3.296875 C 3.359375 -2.84375 3.15625 -2 2.765625 -1.28125 C 2.421875 -0.59375 2.046875 -0.109375 1.609375 -0.109375 C 1.28125 -0.109375 1.078125 -0.40625 1.078125 -1.328125 C 1.078125 -1.75 1.140625 -2.328125 1.390625 -3.296875 Z M 3.46875 -3.296875 "
   id="path9955" />
      </symbol>
    </g>
  <g
   id="g9177">
      <symbol
   overflow="visible"
   id="symbol6261">
        <path
   style="stroke:none;"
   d=""
   id="path2618" />
      </symbol>
      <symbol
   overflow="visible"
   id="symbol7649">
        <path
   style="stroke:none;"
   d="M 5.734375 -5.671875 C 5.734375 -6.421875 5.1875 -7.03125 4.375 -7.03125 C 3.796875 -7.03125 3.515625 -6.875 3.171875 -6.625 C 2.625 -6.21875 2.078125 -5.25 1.890625 -4.5 L 0.296875 1.828125 C 0.296875 1.875 0.34375 1.9375 0.421875 1.9375 C 0.5 1.9375 0.53125 1.90625 0.53125 1.890625 L 1.234375 -0.875 C 1.421875 -0.265625 1.859375 0.09375 2.59375 0.09375 C 3.3125 0.09375 4.0625 -0.25 4.515625 -0.6875 C 5 -1.140625 5.3125 -1.78125 5.3125 -2.515625 C 5.3125 -3.234375 4.9375 -3.765625 4.578125 -4 C 5.15625 -4.34375 5.734375 -4.953125 5.734375 -5.671875 Z M 3.9375 -4.015625 C 3.8125 -3.96875 3.703125 -3.953125 3.453125 -3.953125 C 3.3125 -3.953125 3.125 -3.9375 3.015625 -3.984375 C 3.046875 -4.09375 3.40625 -4.0625 3.515625 -4.0625 C 3.71875 -4.0625 3.8125 -4.0625 3.9375 -4.015625 Z M 5.171875 -5.90625 C 5.171875 -5.203125 4.796875 -4.484375 4.28125 -4.171875 C 4 -4.28125 3.8125 -4.296875 3.515625 -4.296875 C 3.296875 -4.296875 2.734375 -4.3125 2.734375 -3.984375 C 2.734375 -3.703125 3.25 -3.734375 3.421875 -3.734375 C 3.796875 -3.734375 3.953125 -3.734375 4.25 -3.859375 C 4.625 -3.5 4.671875 -3.1875 4.6875 -2.734375 C 4.703125 -2.15625 4.46875 -1.40625 4.1875 -1.015625 C 3.796875 -0.484375 3.125 -0.125 2.5625 -0.125 C 1.796875 -0.125 1.421875 -0.703125 1.421875 -1.40625 C 1.421875 -1.5 1.421875 -1.65625 1.46875 -1.84375 L 2.109375 -4.359375 C 2.328125 -5.21875 3.046875 -6.8125 4.25 -6.8125 C 4.828125 -6.8125 5.171875 -6.5 5.171875 -5.90625 Z M 5.171875 -5.90625 "
   id="path1673" />
      </symbol>
      <symbol
   overflow="visible"
   id="symbol1133">
        <path
   style="stroke:none;"
   d="M 4.53125 -4.984375 C 4.53125 -5.640625 4.359375 -7.03125 3.34375 -7.03125 C 1.953125 -7.03125 0.421875 -4.21875 0.421875 -1.9375 C 0.421875 -1 0.703125 0.109375 1.609375 0.109375 C 3.015625 0.109375 4.53125 -2.75 4.53125 -4.984375 Z M 1.46875 -3.625 C 1.640625 -4.25 1.84375 -5.046875 2.25 -5.765625 C 2.515625 -6.25 2.875 -6.8125 3.328125 -6.8125 C 3.8125 -6.8125 3.875 -6.171875 3.875 -5.609375 C 3.875 -5.109375 3.796875 -4.609375 3.5625 -3.625 Z M 3.46875 -3.296875 C 3.359375 -2.84375 3.15625 -2 2.765625 -1.28125 C 2.421875 -0.59375 2.046875 -0.109375 1.609375 -0.109375 C 1.28125 -0.109375 1.078125 -0.40625 1.078125 -1.328125 C 1.078125 -1.75 1.140625 -2.328125 1.390625 -3.296875 Z M 3.46875 -3.296875 "
   id="path7887" />
      </symbol>
      <symbol
   overflow="visible"
   id="symbol2149">
        <path
   style="stroke:none;"
   d=""
   id="path2671" />
      </symbol>
      <symbol
   overflow="visible"
   id="symbol617">
        <path
   style="stroke:none;"
   d="M 6.84375 -3.265625 C 7 -3.265625 7.1875 -3.265625 7.1875 -3.453125 C 7.1875 -3.65625 7 -3.65625 6.859375 -3.65625 L 0.890625 -3.65625 C 0.75 -3.65625 0.5625 -3.65625 0.5625 -3.453125 C 0.5625 -3.265625 0.75 -3.265625 0.890625 -3.265625 Z M 6.859375 -1.328125 C 7 -1.328125 7.1875 -1.328125 7.1875 -1.53125 C 7.1875 -1.71875 7 -1.71875 6.84375 -1.71875 L 0.890625 -1.71875 C 0.75 -1.71875 0.5625 -1.71875 0.5625 -1.53125 C 0.5625 -1.328125 0.75 -1.328125 0.890625 -1.328125 Z M 6.859375 -1.328125 "
   id="path5977" />
      </symbol>
      <symbol
   overflow="visible"
   id="symbol748">
        <path
   style="stroke:none;"
   d="M 1.265625 -0.765625 L 2.328125 -1.796875 C 3.875 -3.171875 4.46875 -3.703125 4.46875 -4.703125 C 4.46875 -5.84375 3.578125 -6.640625 2.359375 -6.640625 C 1.234375 -6.640625 0.5 -5.71875 0.5 -4.828125 C 0.5 -4.28125 1 -4.28125 1.03125 -4.28125 C 1.203125 -4.28125 1.546875 -4.390625 1.546875 -4.8125 C 1.546875 -5.0625 1.359375 -5.328125 1.015625 -5.328125 C 0.9375 -5.328125 0.921875 -5.328125 0.890625 -5.3125 C 1.109375 -5.96875 1.65625 -6.328125 2.234375 -6.328125 C 3.140625 -6.328125 3.5625 -5.515625 3.5625 -4.703125 C 3.5625 -3.90625 3.078125 -3.125 2.515625 -2.5 L 0.609375 -0.375 C 0.5 -0.265625 0.5 -0.234375 0.5 0 L 4.203125 0 L 4.46875 -1.734375 L 4.234375 -1.734375 C 4.171875 -1.4375 4.109375 -1 4 -0.84375 C 3.9375 -0.765625 3.28125 -0.765625 3.0625 -0.765625 Z M 1.265625 -0.765625 "
   id="path8773" />
      </symbol>
    </g>
  <g
   id="g9270">
      <symbol
   overflow="visible"
   id="symbol6674">
        <path
   style="stroke:none;"
   d=""
   id="path3411" />
      </symbol>
      <symbol
   overflow="visible"
   id="symbol832">
        <path
   style="stroke:none;"
   d="M 1.265625 -0.765625 L 2.328125 -1.796875 C 3.875 -3.171875 4.46875 -3.703125 4.46875 -4.703125 C 4.46875 -5.84375 3.578125 -6.640625 2.359375 -6.640625 C 1.234375 -6.640625 0.5 -5.71875 0.5 -4.828125 C 0.5 -4.28125 1 -4.28125 1.03125 -4.28125 C 1.203125 -4.28125 1.546875 -4.390625 1.546875 -4.8125 C 1.546875 -5.0625 1.359375 -5.328125 1.015625 -5.328125 C 0.9375 -5.328125 0.921875 -5.328125 0.890625 -5.3125 C 1.109375 -5.96875 1.65625 -6.328125 2.234375 -6.328125 C 3.140625 -6.328125 3.5625 -5.515625 3.5625 -4.703125 C 3.5625 -3.90625 3.078125 -3.125 2.515625 -2.5 L 0.609375 -0.375 C 0.5 -0.265625 0.5 -0.234375 0.5 0 L 4.203125 0 L 4.46875 -1.734375 L 4.234375 -1.734375 C 4.171875 -1.4375 4.109375 -1 4 -0.84375 C 3.9375 -0.765625 3.28125 -0.765625 3.0625 -0.765625 Z M 1.265625 -0.765625 "
   id="path9379" />
      </symbol>
      <symbol
   overflow="visible"
   id="symbol1628">
        <path
   style="stroke:none;"
   d="M 1.171875 -2.171875 C 1.171875 -3.796875 1.984375 -4.21875 2.515625 -4.21875 C 2.609375 -4.21875 3.234375 -4.203125 3.578125 -3.84375 C 3.171875 -3.8125 3.109375 -3.515625 3.109375 -3.390625 C 3.109375 -3.125 3.296875 -2.9375 3.5625 -2.9375 C 3.828125 -2.9375 4.03125 -3.09375 4.03125 -3.40625 C 4.03125 -4.078125 3.265625 -4.46875 2.5 -4.46875 C 1.25 -4.46875 0.34375 -3.390625 0.34375 -2.15625 C 0.34375 -0.875 1.328125 0.109375 2.484375 0.109375 C 3.8125 0.109375 4.140625 -1.09375 4.140625 -1.1875 C 4.140625 -1.28125 4.03125 -1.28125 4 -1.28125 C 3.921875 -1.28125 3.890625 -1.25 3.875 -1.1875 C 3.59375 -0.265625 2.9375 -0.140625 2.578125 -0.140625 C 2.046875 -0.140625 1.171875 -0.5625 1.171875 -2.171875 Z M 1.171875 -2.171875 "
   id="path569" />
      </symbol>
      <symbol
   overflow="visible"
   id="symbol1975">
        <path
   style="stroke:none;"
   d="M 4.6875 -2.140625 C 4.6875 -3.40625 3.703125 -4.46875 2.5 -4.46875 C 1.25 -4.46875 0.28125 -3.375 0.28125 -2.140625 C 0.28125 -0.84375 1.3125 0.109375 2.484375 0.109375 C 3.6875 0.109375 4.6875 -0.875 4.6875 -2.140625 Z M 2.5 -0.140625 C 2.0625 -0.140625 1.625 -0.34375 1.359375 -0.8125 C 1.109375 -1.25 1.109375 -1.859375 1.109375 -2.21875 C 1.109375 -2.609375 1.109375 -3.140625 1.34375 -3.578125 C 1.609375 -4.03125 2.078125 -4.25 2.484375 -4.25 C 2.921875 -4.25 3.34375 -4.03125 3.609375 -3.59375 C 3.875 -3.171875 3.875 -2.59375 3.875 -2.21875 C 3.875 -1.859375 3.875 -1.3125 3.65625 -0.875 C 3.421875 -0.421875 2.984375 -0.140625 2.5 -0.140625 Z M 2.5 -0.140625 "
   id="path6903" />
      </symbol>
      <symbol
   overflow="visible"
   id="symbol9083">
        <path
   style="stroke:none;"
   d="M 2.078125 -1.9375 C 2.296875 -1.890625 3.109375 -1.734375 3.109375 -1.015625 C 3.109375 -0.515625 2.765625 -0.109375 1.984375 -0.109375 C 1.140625 -0.109375 0.78125 -0.671875 0.59375 -1.53125 C 0.5625 -1.65625 0.5625 -1.6875 0.453125 -1.6875 C 0.328125 -1.6875 0.328125 -1.625 0.328125 -1.453125 L 0.328125 -0.125 C 0.328125 0.046875 0.328125 0.109375 0.4375 0.109375 C 0.484375 0.109375 0.5 0.09375 0.6875 -0.09375 C 0.703125 -0.109375 0.703125 -0.125 0.890625 -0.3125 C 1.328125 0.09375 1.78125 0.109375 1.984375 0.109375 C 3.125 0.109375 3.59375 -0.5625 3.59375 -1.28125 C 3.59375 -1.796875 3.296875 -2.109375 3.171875 -2.21875 C 2.84375 -2.546875 2.453125 -2.625 2.03125 -2.703125 C 1.46875 -2.8125 0.8125 -2.9375 0.8125 -3.515625 C 0.8125 -3.875 1.0625 -4.28125 1.921875 -4.28125 C 3.015625 -4.28125 3.078125 -3.375 3.09375 -3.078125 C 3.09375 -2.984375 3.1875 -2.984375 3.203125 -2.984375 C 3.34375 -2.984375 3.34375 -3.03125 3.34375 -3.21875 L 3.34375 -4.234375 C 3.34375 -4.390625 3.34375 -4.46875 3.234375 -4.46875 C 3.1875 -4.46875 3.15625 -4.46875 3.03125 -4.34375 C 3 -4.3125 2.90625 -4.21875 2.859375 -4.1875 C 2.484375 -4.46875 2.078125 -4.46875 1.921875 -4.46875 C 0.703125 -4.46875 0.328125 -3.796875 0.328125 -3.234375 C 0.328125 -2.890625 0.484375 -2.609375 0.75 -2.390625 C 1.078125 -2.140625 1.359375 -2.078125 2.078125 -1.9375 Z M 2.078125 -1.9375 "
   id="path3393" />
      </symbol>
      <symbol
   overflow="visible"
   id="symbol8201">
        <path
   style="stroke:none;"
   d=""
   id="path4787" />
      </symbol>
      <symbol
   overflow="visible"
   id="symbol603">
        <path
   style="stroke:none;"
   d="M 3.734375 -6.03125 C 3.8125 -6.390625 3.84375 -6.5 4.78125 -6.5 C 5.078125 -6.5 5.15625 -6.5 5.15625 -6.6875 C 5.15625 -6.8125 5.046875 -6.8125 5 -6.8125 C 4.671875 -6.8125 3.859375 -6.78125 3.53125 -6.78125 C 3.234375 -6.78125 2.5 -6.8125 2.203125 -6.8125 C 2.140625 -6.8125 2.015625 -6.8125 2.015625 -6.609375 C 2.015625 -6.5 2.109375 -6.5 2.296875 -6.5 C 2.3125 -6.5 2.5 -6.5 2.671875 -6.484375 C 2.84375 -6.453125 2.9375 -6.453125 2.9375 -6.3125 C 2.9375 -6.28125 2.9375 -6.25 2.90625 -6.125 L 1.5625 -0.78125 C 1.46875 -0.390625 1.453125 -0.3125 0.65625 -0.3125 C 0.484375 -0.3125 0.390625 -0.3125 0.390625 -0.109375 C 0.390625 0 0.484375 0 0.65625 0 L 5.28125 0 C 5.515625 0 5.515625 0 5.578125 -0.171875 L 6.375 -2.328125 C 6.40625 -2.4375 6.40625 -2.453125 6.40625 -2.46875 C 6.40625 -2.5 6.375 -2.578125 6.296875 -2.578125 C 6.203125 -2.578125 6.1875 -2.515625 6.125 -2.359375 C 5.78125 -1.453125 5.34375 -0.3125 3.625 -0.3125 L 2.6875 -0.3125 C 2.546875 -0.3125 2.515625 -0.3125 2.46875 -0.3125 C 2.359375 -0.328125 2.328125 -0.34375 2.328125 -0.421875 C 2.328125 -0.453125 2.328125 -0.46875 2.375 -0.640625 Z M 3.734375 -6.03125 "
   id="path4497" />
      </symbol>
      <symbol
   overflow="visible"
   id="symbol7617">
        <path
   style="stroke:none;"
   d="M 4.53125 -4.984375 C 4.53125 -5.640625 4.359375 -7.03125 3.34375 -7.03125 C 1.953125 -7.03125 0.421875 -4.21875 0.421875 -1.9375 C 0.421875 -1 0.703125 0.109375 1.609375 0.109375 C 3.015625 0.109375 4.53125 -2.75 4.53125 -4.984375 Z M 1.46875 -3.625 C 1.640625 -4.25 1.84375 -5.046875 2.25 -5.765625 C 2.515625 -6.25 2.875 -6.8125 3.328125 -6.8125 C 3.8125 -6.8125 3.875 -6.171875 3.875 -5.609375 C 3.875 -5.109375 3.796875 -4.609375 3.5625 -3.625 Z M 3.46875 -3.296875 C 3.359375 -2.84375 3.15625 -2 2.765625 -1.28125 C 2.421875 -0.59375 2.046875 -0.109375 1.609375 -0.109375 C 1.28125 -0.109375 1.078125 -0.40625 1.078125 -1.328125 C 1.078125 -1.75 1.140625 -2.328125 1.390625 -3.296875 Z M 3.46875 -3.296875 "
   id="path8490" />
      </symbol>
    </g>
  <g
   id="g2207">
      <symbol
   overflow="visible"
   id="symbol7159">
        <path
   style="stroke:none;"
   d=""
   id="path3578" />
      </symbol>
      <symbol
   overflow="visible"
   id="symbol8303">
        <path
   style="stroke:none;"
   d="M 1.265625 -0.765625 L 2.328125 -1.796875 C 3.875 -3.171875 4.46875 -3.703125 4.46875 -4.703125 C 4.46875 -5.84375 3.578125 -6.640625 2.359375 -6.640625 C 1.234375 -6.640625 0.5 -5.71875 0.5 -4.828125 C 0.5 -4.28125 1 -4.28125 1.03125 -4.28125 C 1.203125 -4.28125 1.546875 -4.390625 1.546875 -4.8125 C 1.546875 -5.0625 1.359375 -5.328125 1.015625 -5.328125 C 0.9375 -5.328125 0.921875 -5.328125 0.890625 -5.3125 C 1.109375 -5.96875 1.65625 -6.328125 2.234375 -6.328125 C 3.140625 -6.328125 3.5625 -5.515625 3.5625 -4.703125 C 3.5625 -3.90625 3.078125 -3.125 2.515625 -2.5 L 0.609375 -0.375 C 0.5 -0.265625 0.5 -0.234375 0.5 0 L 4.203125 0 L 4.46875 -1.734375 L 4.234375 -1.734375 C 4.171875 -1.4375 4.109375 -1 4 -0.84375 C 3.9375 -0.765625 3.28125 -0.765625 3.0625 -0.765625 Z M 1.265625 -0.765625 "
   id="path1759" />
      </symbol>
      <symbol
   overflow="visible"
   id="symbol4389">
        <path
   style="stroke:none;"
   d=""
   id="path955" />
      </symbol>
      <symbol
   overflow="visible"
   id="symbol2210">
        <path
   style="stroke:none;"
   d="M 3.734375 -6.03125 C 3.8125 -6.390625 3.84375 -6.5 4.78125 -6.5 C 5.078125 -6.5 5.15625 -6.5 5.15625 -6.6875 C 5.15625 -6.8125 5.046875 -6.8125 5 -6.8125 C 4.671875 -6.8125 3.859375 -6.78125 3.53125 -6.78125 C 3.234375 -6.78125 2.5 -6.8125 2.203125 -6.8125 C 2.140625 -6.8125 2.015625 -6.8125 2.015625 -6.609375 C 2.015625 -6.5 2.109375 -6.5 2.296875 -6.5 C 2.3125 -6.5 2.5 -6.5 2.671875 -6.484375 C 2.84375 -6.453125 2.9375 -6.453125 2.9375 -6.3125 C 2.9375 -6.28125 2.9375 -6.25 2.90625 -6.125 L 1.5625 -0.78125 C 1.46875 -0.390625 1.453125 -0.3125 0.65625 -0.3125 C 0.484375 -0.3125 0.390625 -0.3125 0.390625 -0.109375 C 0.390625 0 0.484375 0 0.65625 0 L 5.28125 0 C 5.515625 0 5.515625 0 5.578125 -0.171875 L 6.375 -2.328125 C 6.40625 -2.4375 6.40625 -2.453125 6.40625 -2.46875 C 6.40625 -2.5 6.375 -2.578125 6.296875 -2.578125 C 6.203125 -2.578125 6.1875 -2.515625 6.125 -2.359375 C 5.78125 -1.453125 5.34375 -0.3125 3.625 -0.3125 L 2.6875 -0.3125 C 2.546875 -0.3125 2.515625 -0.3125 2.46875 -0.3125 C 2.359375 -0.328125 2.328125 -0.34375 2.328125 -0.421875 C 2.328125 -0.453125 2.328125 -0.46875 2.375 -0.640625 Z M 3.734375 -6.03125 "
   id="path7743" />
      </symbol>
    </g>
  <g
   id="g6782">
      <symbol
   overflow="visible"
   id="symbol3931">
        <path
   style="stroke:none;"
   d=""
   id="path6434" />
      </symbol>
      <symbol
   overflow="visible"
   id="symbol6255">
        <path
   style="stroke:none;"
   d="M 3.015625 -3.15625 L 4.71875 -3.15625 C 6.125 -3.15625 7.515625 -4.1875 7.515625 -5.296875 C 7.515625 -6.078125 6.859375 -6.8125 5.546875 -6.8125 L 2.328125 -6.8125 C 2.140625 -6.8125 2.03125 -6.8125 2.03125 -6.625 C 2.03125 -6.5 2.109375 -6.5 2.3125 -6.5 C 2.4375 -6.5 2.625 -6.484375 2.734375 -6.484375 C 2.90625 -6.453125 2.953125 -6.4375 2.953125 -6.3125 C 2.953125 -6.28125 2.953125 -6.25 2.921875 -6.125 L 1.578125 -0.78125 C 1.484375 -0.390625 1.46875 -0.3125 0.671875 -0.3125 C 0.515625 -0.3125 0.40625 -0.3125 0.40625 -0.125 C 0.40625 0 0.515625 0 0.546875 0 C 0.828125 0 1.53125 -0.03125 1.8125 -0.03125 C 2.03125 -0.03125 2.25 -0.015625 2.453125 -0.015625 C 2.671875 -0.015625 2.890625 0 3.09375 0 C 3.171875 0 3.296875 0 3.296875 -0.203125 C 3.296875 -0.3125 3.203125 -0.3125 3.015625 -0.3125 C 2.65625 -0.3125 2.375 -0.3125 2.375 -0.484375 C 2.375 -0.546875 2.390625 -0.59375 2.40625 -0.65625 Z M 3.734375 -6.125 C 3.828125 -6.46875 3.84375 -6.5 4.28125 -6.5 L 5.234375 -6.5 C 6.0625 -6.5 6.59375 -6.234375 6.59375 -5.546875 C 6.59375 -5.15625 6.390625 -4.296875 6 -3.9375 C 5.5 -3.484375 4.90625 -3.40625 4.46875 -3.40625 L 3.0625 -3.40625 Z M 3.734375 -6.125 "
   id="path5647" />
      </symbol>
    </g>
  <g
   id="g6780">
      <symbol
   overflow="visible"
   id="symbol5509">
        <path
   style="stroke:none;"
   d=""
   id="path3046" />
      </symbol>
      <symbol
   overflow="visible"
   id="symbol5942">
        <path
   style="stroke:none;"
   d="M 3.328125 -3.015625 C 3.390625 -3.265625 3.625 -4.1875 4.3125 -4.1875 C 4.359375 -4.1875 4.609375 -4.1875 4.8125 -4.0625 C 4.53125 -4 4.34375 -3.765625 4.34375 -3.515625 C 4.34375 -3.359375 4.453125 -3.171875 4.71875 -3.171875 C 4.9375 -3.171875 5.25 -3.34375 5.25 -3.75 C 5.25 -4.265625 4.671875 -4.40625 4.328125 -4.40625 C 3.75 -4.40625 3.40625 -3.875 3.28125 -3.65625 C 3.03125 -4.3125 2.5 -4.40625 2.203125 -4.40625 C 1.171875 -4.40625 0.59375 -3.125 0.59375 -2.875 C 0.59375 -2.765625 0.703125 -2.765625 0.71875 -2.765625 C 0.796875 -2.765625 0.828125 -2.796875 0.84375 -2.875 C 1.1875 -3.9375 1.84375 -4.1875 2.1875 -4.1875 C 2.375 -4.1875 2.71875 -4.09375 2.71875 -3.515625 C 2.71875 -3.203125 2.546875 -2.546875 2.1875 -1.140625 C 2.03125 -0.53125 1.671875 -0.109375 1.234375 -0.109375 C 1.171875 -0.109375 0.953125 -0.109375 0.734375 -0.234375 C 0.984375 -0.296875 1.203125 -0.5 1.203125 -0.78125 C 1.203125 -1.046875 0.984375 -1.125 0.84375 -1.125 C 0.53125 -1.125 0.296875 -0.875 0.296875 -0.546875 C 0.296875 -0.09375 0.78125 0.109375 1.21875 0.109375 C 1.890625 0.109375 2.25 -0.59375 2.265625 -0.640625 C 2.390625 -0.28125 2.75 0.109375 3.34375 0.109375 C 4.375 0.109375 4.9375 -1.171875 4.9375 -1.421875 C 4.9375 -1.53125 4.859375 -1.53125 4.828125 -1.53125 C 4.734375 -1.53125 4.71875 -1.484375 4.6875 -1.421875 C 4.359375 -0.34375 3.6875 -0.109375 3.375 -0.109375 C 2.984375 -0.109375 2.828125 -0.421875 2.828125 -0.765625 C 2.828125 -0.984375 2.875 -1.203125 2.984375 -1.640625 Z M 3.328125 -3.015625 "
   id="path1388" />
      </symbol>
    </g>
  <g
   id="g4512">
      <symbol
   overflow="visible"
   id="symbol3266">
        <path
   style="stroke:none;"
   d=""
   id="path2089" />
      </symbol>
      <symbol
   overflow="visible"
   id="symbol8042">
        <path
   style="stroke:none;"
   d="M 4.84375 -3.796875 C 4.890625 -3.9375 4.890625 -3.953125 4.890625 -4.03125 C 4.890625 -4.203125 4.75 -4.296875 4.59375 -4.296875 C 4.5 -4.296875 4.34375 -4.234375 4.25 -4.09375 C 4.234375 -4.03125 4.140625 -3.734375 4.109375 -3.546875 C 4.03125 -3.296875 3.96875 -3.015625 3.90625 -2.75 L 3.453125 -0.953125 C 3.421875 -0.8125 2.984375 -0.109375 2.328125 -0.109375 C 1.828125 -0.109375 1.71875 -0.546875 1.71875 -0.921875 C 1.71875 -1.375 1.890625 -2 2.21875 -2.875 C 2.375 -3.28125 2.421875 -3.390625 2.421875 -3.59375 C 2.421875 -4.03125 2.109375 -4.40625 1.609375 -4.40625 C 0.65625 -4.40625 0.296875 -2.953125 0.296875 -2.875 C 0.296875 -2.765625 0.390625 -2.765625 0.40625 -2.765625 C 0.515625 -2.765625 0.515625 -2.796875 0.5625 -2.953125 C 0.84375 -3.890625 1.234375 -4.1875 1.578125 -4.1875 C 1.65625 -4.1875 1.828125 -4.1875 1.828125 -3.875 C 1.828125 -3.625 1.71875 -3.359375 1.65625 -3.171875 C 1.25 -2.109375 1.078125 -1.546875 1.078125 -1.078125 C 1.078125 -0.1875 1.703125 0.109375 2.296875 0.109375 C 2.6875 0.109375 3.015625 -0.0625 3.296875 -0.34375 C 3.171875 0.171875 3.046875 0.671875 2.65625 1.203125 C 2.390625 1.53125 2.015625 1.828125 1.5625 1.828125 C 1.421875 1.828125 0.96875 1.796875 0.796875 1.40625 C 0.953125 1.40625 1.09375 1.40625 1.21875 1.28125 C 1.328125 1.203125 1.421875 1.0625 1.421875 0.875 C 1.421875 0.5625 1.15625 0.53125 1.0625 0.53125 C 0.828125 0.53125 0.5 0.6875 0.5 1.171875 C 0.5 1.671875 0.9375 2.046875 1.5625 2.046875 C 2.578125 2.046875 3.609375 1.140625 3.890625 0.015625 Z M 4.84375 -3.796875 "
   id="path1520" />
      </symbol>
    </g>
  </defs><sodipodi:namedview
     id="namedview11"
     pagecolor="#505050"
     bordercolor="#eeeeee"
     borderopacity="1"
     inkscape:pageshadow="0"
     inkscape:pageopacity="0"
     inkscape:pagecheckerboard="0"
     showgrid="false"
     inkscape:zoom="2.8284271"
     inkscape:cx="301.75782"
     inkscape:cy="175.00893"
     inkscape:window-width="1920"
     inkscape:window-height="1046"
     inkscape:window-x="-11"
     inkscape:window-y="-11"
     inkscape:window-maximized="1"
     inkscape:current-layer="g15" /><g
     id="g15"
     inkscape:groupmode="layer"
     inkscape:label="AENGM0057 - NSSS - 02b - Stability of 1DOF Structures"
     transform="matrix(1.33333 0 0 -1.33333 0 340.157)"><path
       style="fill:none;stroke:#000000;stroke-width:0.225001;stroke-linecap:butt;stroke-linejoin:miter;stroke-miterlimit:4;stroke-dasharray:2.7, 2.7;stroke-dashoffset:0;stroke-opacity:1"
       d="M 317.46101,156.62889 V 48.961321"
       id="path6135" /><path
       style="fill:none;stroke:#000000;stroke-width:0.225001;stroke-linecap:butt;stroke-linejoin:miter;stroke-miterlimit:4;stroke-dasharray:2.7, 2.7;stroke-dashoffset:0;stroke-opacity:1"
       d="M 314.36729,109.48677 V 63.483407"
       id="path6619" /><path
       style="fill:none;stroke:#000000;stroke-width:0.225001;stroke-linecap:butt;stroke-linejoin:miter;stroke-miterlimit:4;stroke-dasharray:2.7, 2.7;stroke-dashoffset:0;stroke-opacity:1"
       d="M 317.46101,156.62889 V 48.961321"
       id="path5973" /><path
       style="fill:none;stroke:#000000;stroke-width:0.225002;stroke-linecap:butt;stroke-linejoin:miter;stroke-miterlimit:4;stroke-dasharray:2.70001, 2.70001;stroke-dashoffset:0;stroke-opacity:1"
       d="m 314.2434,97.668828 -191.01908,6e-6"
       id="path4972"
       sodipodi:nodetypes="cc" /><path
       style="fill:none;stroke:#000000;stroke-width:0.225001;stroke-linecap:butt;stroke-linejoin:miter;stroke-miterlimit:4;stroke-dasharray:2.70001, 2.70001;stroke-dashoffset:0;stroke-opacity:1"
       d="m 218.71848,115.4194 29.98285,5.2868"
       id="path3037" /><path
       style="fill:none;stroke:#000000;stroke-width:0.225001;stroke-linecap:butt;stroke-linejoin:miter;stroke-miterlimit:4;stroke-dasharray:2.7, 2.7;stroke-dashoffset:0;stroke-opacity:1"
       d="M 123.09025,156.62916 V 48.961524"
       id="path1796" /><g
       id="g109"
       transform="matrix(0.84001,0,0,0.84001,115.90354,133.09718)"><path
         d="M 0,0 8.556,14.819 17.112,0 Z"
         style="fill:#d3d2d2;fill-opacity:1;fill-rule:nonzero;stroke:none"
         id="path111" /></g><g
       id="g113"
       transform="matrix(0.84001,0,0,0.84001,115.90354,133.09718)"><path
         d="M 0,0 8.556,14.819 17.112,0 Z"
         style="fill:none;stroke:#231f20;stroke-width:1;stroke-linecap:butt;stroke-linejoin:round;stroke-miterlimit:10;stroke-dasharray:none;stroke-opacity:1"
         id="path115" /></g><g
       id="g117"
       transform="matrix(0.84001,0,0,0.84001,310.29857,133.09718)"><path
         d="M 0,0 8.556,14.819 17.113,0 Z"
         style="fill:#d3d2d2;fill-opacity:1;fill-rule:nonzero;stroke:none"
         id="path119" /></g><g
       id="g121"
       transform="matrix(0.84001,0,0,0.84001,310.29857,133.09718)"><path
         d="M 0,0 8.556,14.819 17.113,0 Z"
         style="fill:none;stroke:#231f20;stroke-width:1;stroke-linecap:butt;stroke-linejoin:round;stroke-miterlimit:10;stroke-dasharray:none;stroke-opacity:1"
         id="path123" /></g><g
       id="g125"
       transform="matrix(0.84001,0,0,0.84001,123.09075,145.54563)"><path
         d="M 0,0 H 231.202"
         style="fill:none;stroke:#231f20;stroke-width:1;stroke-linecap:butt;stroke-linejoin:miter;stroke-miterlimit:10;stroke-dasharray:none;stroke-opacity:1"
         id="path127" /></g><g
       id="g129"
       transform="matrix(0.84001,0,0,-0.84001,123.08991,98.570502)"><path
         d="M 0,0 113.845,-20.074"
         style="fill:none;stroke:#231f20;stroke-width:1;stroke-linecap:butt;stroke-linejoin:miter;stroke-miterlimit:10;stroke-dasharray:none;stroke-opacity:1"
         id="path131" /></g><g
       id="g145"
       transform="matrix(0.84001,0,0,-0.84001,314.35179,98.570502)"><path
         d="M 0,0 -113.845,-20.074"
         style="fill:none;stroke:#231f20;stroke-width:1;stroke-linecap:butt;stroke-linejoin:miter;stroke-miterlimit:10;stroke-dasharray:none;stroke-opacity:1"
         id="path147" /></g><g
       id="g157"
       transform="matrix(0.84001,0,0,0.84001,124.87703,145.54563)"><path
         d="m 0,0 c 0,-1.174 -0.952,-2.126 -2.126,-2.126 -1.175,0 -2.126,0.952 -2.126,2.126 0,1.174 0.951,2.126 2.126,2.126 C -0.952,2.126 0,1.174 0,0"
         style="fill:#ffffff;fill-opacity:1;fill-rule:nonzero;stroke:none"
         id="path159" /></g><g
       id="g161"
       transform="matrix(0.84001,0,0,0.84001,124.87703,145.54563)"><path
         d="m 0,0 c 0,-1.174 -0.952,-2.126 -2.126,-2.126 -1.175,0 -2.126,0.952 -2.126,2.126 0,1.174 0.951,2.126 2.126,2.126 C -0.952,2.126 0,1.174 0,0 Z"
         style="fill:none;stroke:#231f20;stroke-width:1;stroke-linecap:butt;stroke-linejoin:bevel;stroke-miterlimit:10;stroke-dasharray:none;stroke-opacity:1"
         id="path163" /></g><g
       id="g2578"
       transform="matrix(0.84001,0,0,0.84001,48.19,105.297)"><g
         id="g165"
         transform="translate(205.1362,12.005191)"><path
           d="m 0,0 c 0,1.174 -0.952,2.126 -2.126,2.126 -1.175,0 -2.126,-0.952 -2.126,-2.126 0,-1.174 0.951,-2.126 2.126,-2.126 C -0.952,-2.126 0,-1.174 0,0"
           style="fill:#ffffff;fill-opacity:1;fill-rule:nonzero;stroke:none"
           id="path167" /></g><g
         id="g169"
         transform="translate(205.1362,12.005191)"><path
           d="m 0,0 c 0,1.174 -0.952,2.126 -2.126,2.126 -1.175,0 -2.126,-0.952 -2.126,-2.126 0,-1.174 0.951,-2.126 2.126,-2.126 C -0.952,-2.126 0,-1.174 0,0 Z"
           style="fill:none;stroke:#231f20;stroke-width:1;stroke-linecap:butt;stroke-linejoin:bevel;stroke-miterlimit:10;stroke-dasharray:none;stroke-opacity:1"
           id="path171" /></g></g><g
       id="g173"
       transform="matrix(0.84001,0,0,0.84001,221.98269,145.54521)"><path
         d="m 0,0 c 0,-1.174 -0.952,-2.126 -2.126,-2.126 -1.175,0 -2.126,0.952 -2.126,2.126 0,1.174 0.951,2.126 2.126,2.126 C -0.952,2.126 0,1.174 0,0"
         style="fill:#ffffff;fill-opacity:1;fill-rule:nonzero;stroke:none"
         id="path175" /></g><g
       id="g177"
       transform="matrix(0.84001,0,0,0.84001,221.98269,145.54521)"><path
         d="m 0,0 c 0,-1.174 -0.952,-2.126 -2.126,-2.126 -1.175,0 -2.126,0.952 -2.126,2.126 0,1.174 0.951,2.126 2.126,2.126 C -0.952,2.126 0,1.174 0,0 Z"
         style="fill:none;stroke:#231f20;stroke-width:1;stroke-linecap:butt;stroke-linejoin:bevel;stroke-miterlimit:10;stroke-dasharray:none;stroke-opacity:1"
         id="path179" /></g><g
       id="g181"
       transform="matrix(0.84001,0,0,0.84001,319.27206,145.54563)"><path
         d="m 0,0 c 0,-1.175 -0.95,-2.126 -2.127,-2.126 -1.174,0 -2.125,0.951 -2.125,2.126 0,1.175 0.951,2.127 2.125,2.127 C -0.95,2.127 0,1.175 0,0"
         style="fill:#ffffff;fill-opacity:1;fill-rule:nonzero;stroke:none"
         id="path183" /></g><g
       id="g185"
       transform="matrix(0.84001,0,0,0.84001,319.27206,145.54563)"><path
         d="m 0,0 c 0,-1.175 -0.95,-2.126 -2.127,-2.126 -1.174,0 -2.125,0.951 -2.125,2.126 0,1.175 0.951,2.127 2.125,2.127 C -0.95,2.127 0,1.175 0,0 Z"
         style="fill:none;stroke:#231f20;stroke-width:1;stroke-linecap:butt;stroke-linejoin:bevel;stroke-miterlimit:10;stroke-dasharray:none;stroke-opacity:1"
         id="path187" /></g><g
       id="g189"
       transform="matrix(0.84001,0,0,0.84001,315.93664,131.45446)"><path
         d="m 0,0 c 0,-1.02 -0.827,-1.846 -1.848,-1.846 -1.019,0 -1.843,0.826 -1.843,1.846 0,1.02 0.824,1.847 1.843,1.847 C -0.827,1.847 0,1.02 0,0"
         style="fill:#ffffff;fill-opacity:1;fill-rule:nonzero;stroke:none"
         id="path191" /></g><g
       id="g193"
       transform="matrix(0.84001,0,0,0.84001,315.93664,131.45446)"><path
         d="m 0,0 c 0,-1.02 -0.827,-1.846 -1.848,-1.846 -1.019,0 -1.843,0.826 -1.843,1.846 0,1.02 0.824,1.847 1.843,1.847 C -0.827,1.847 0,1.02 0,0 Z"
         style="fill:none;stroke:#231f20;stroke-width:0.75;stroke-linecap:butt;stroke-linejoin:bevel;stroke-miterlimit:10;stroke-dasharray:none;stroke-opacity:1"
         id="path195" /></g><g
       id="g197"
       transform="matrix(0.84001,0,0,0.84001,322.0283,131.45446)"><path
         d="m 0,0 c 0,-1.02 -0.827,-1.846 -1.848,-1.846 -1.021,0 -1.844,0.826 -1.844,1.846 0,1.02 0.823,1.847 1.844,1.847 C -0.827,1.847 0,1.02 0,0"
         style="fill:#ffffff;fill-opacity:1;fill-rule:nonzero;stroke:none"
         id="path199" /></g><g
       id="g201"
       transform="matrix(0.84001,0,0,0.84001,322.0283,131.45446)"><path
         d="m 0,0 c 0,-1.02 -0.827,-1.846 -1.848,-1.846 -1.021,0 -1.844,0.826 -1.844,1.846 0,1.02 0.823,1.847 1.844,1.847 C -0.827,1.847 0,1.02 0,0 Z"
         style="fill:none;stroke:#231f20;stroke-width:0.75;stroke-linecap:butt;stroke-linejoin:bevel;stroke-miterlimit:10;stroke-dasharray:none;stroke-opacity:1"
         id="path203" /></g><g
       id="g205"
       transform="matrix(0.84001,0,0,0.84001,312.62414,83.652169)"><path
         d="m 0,0 c 0,-1.021 -0.826,-1.848 -1.848,-1.848 -1.019,0 -1.843,0.827 -1.843,1.848 0,1.021 0.824,1.848 1.843,1.848 C -0.826,1.848 0,1.021 0,0"
         style="fill:#ffffff;fill-opacity:1;fill-rule:nonzero;stroke:none"
         id="path207" /></g><g
       id="g209"
       transform="matrix(0.84001,0,0,0.84001,312.62414,83.652169)"><path
         d="m 0,0 c 0,-1.021 -0.826,-1.848 -1.848,-1.848 -1.019,0 -1.843,0.827 -1.843,1.848 0,1.021 0.824,1.848 1.843,1.848 C -0.826,1.848 0,1.021 0,0 Z"
         style="fill:none;stroke:#231f20;stroke-width:0.75;stroke-linecap:butt;stroke-linejoin:bevel;stroke-miterlimit:10;stroke-dasharray:none;stroke-opacity:1"
         id="path211" /></g><g
       id="g213"
       transform="matrix(0.84001,0,0,0.84001,318.71589,83.652169)"><path
         d="m 0,0 c 0,-1.021 -0.827,-1.848 -1.848,-1.848 -1.019,0 -1.843,0.827 -1.843,1.848 0,1.021 0.824,1.848 1.843,1.848 C -0.827,1.848 0,1.021 0,0"
         style="fill:#ffffff;fill-opacity:1;fill-rule:nonzero;stroke:none"
         id="path215" /></g><g
       id="g217"
       transform="matrix(0.84001,0,0,0.84001,318.71589,83.652169)"><path
         d="m 0,0 c 0,-1.021 -0.827,-1.848 -1.848,-1.848 -1.019,0 -1.843,0.827 -1.843,1.848 0,1.021 0.824,1.848 1.843,1.848 C -0.827,1.848 0,1.021 0,0 Z"
         style="fill:none;stroke:#231f20;stroke-width:0.75;stroke-linecap:butt;stroke-linejoin:bevel;stroke-miterlimit:10;stroke-dasharray:none;stroke-opacity:1"
         id="path219" /></g><g
       id="g221"
       transform="matrix(0.84001,0,0,0.84001,310.29857,129.90372)"><path
         d="M 0,0 H 17.113"
         style="fill:none;stroke:#231f20;stroke-width:0.75;stroke-linecap:square;stroke-linejoin:bevel;stroke-miterlimit:10;stroke-dasharray:none;stroke-opacity:1"
         id="path223" /></g><g
       id="g225"
       transform="matrix(0.84001,0,0,0.84001,324.67392,129.90372)"><path
         d="M 0,0 -3.909,-3.908"
         style="fill:none;stroke:#231f20;stroke-width:0.5;stroke-linecap:butt;stroke-linejoin:round;stroke-miterlimit:10;stroke-dasharray:none;stroke-opacity:1"
         id="path227" /></g><g
       id="g229"
       transform="matrix(0.84001,0,0,0.84001,313.21316,129.90372)"><path
         d="M 0,0 -3.908,-3.908"
         style="fill:none;stroke:#231f20;stroke-width:0.5;stroke-linecap:butt;stroke-linejoin:round;stroke-miterlimit:10;stroke-dasharray:none;stroke-opacity:1"
         id="path231" /></g><g
       id="g233"
       transform="matrix(0.84001,0,0,0.84001,318.94396,129.90372)"><path
         d="M 0,0 -3.908,-3.908"
         style="fill:none;stroke:#231f20;stroke-width:0.5;stroke-linecap:butt;stroke-linejoin:round;stroke-miterlimit:10;stroke-dasharray:none;stroke-opacity:1"
         id="path235" /></g><g
       id="g237"
       transform="matrix(0.84001,0,0,0.84001,310.44625,82.101763)"><path
         d="M 0,0 -3.907,-3.907"
         style="fill:none;stroke:#231f20;stroke-width:0.5;stroke-linecap:butt;stroke-linejoin:round;stroke-miterlimit:10;stroke-dasharray:none;stroke-opacity:1"
         id="path239" /></g><g
       id="g241"
       transform="matrix(0.84001,0,0,0.84001,316.17696,82.101763)"><path
         d="M 0,0 -3.909,-3.907"
         style="fill:none;stroke:#231f20;stroke-width:0.5;stroke-linecap:butt;stroke-linejoin:round;stroke-miterlimit:10;stroke-dasharray:none;stroke-opacity:1"
         id="path243" /></g><g
       id="g245"
       transform="matrix(0.84001,0,0,0.84001,130.46176,133.09718)"><path
         d="M 0,0 -3.908,-3.907"
         style="fill:none;stroke:#231f20;stroke-width:0.5;stroke-linecap:butt;stroke-linejoin:round;stroke-miterlimit:10;stroke-dasharray:none;stroke-opacity:1"
         id="path247" /></g><g
       id="g249"
       transform="matrix(0.84001,0,0,0.84001,119.00267,133.09718)"><path
         d="M 0,0 -3.908,-3.907"
         style="fill:none;stroke:#231f20;stroke-width:0.5;stroke-linecap:butt;stroke-linejoin:round;stroke-miterlimit:10;stroke-dasharray:none;stroke-opacity:1"
         id="path251" /></g><g
       id="g253"
       transform="matrix(0.84001,0,0,0.84001,124.73138,133.09718)"><path
         d="M 0,0 -3.908,-3.907"
         style="fill:none;stroke:#231f20;stroke-width:0.5;stroke-linecap:butt;stroke-linejoin:round;stroke-miterlimit:10;stroke-dasharray:none;stroke-opacity:1"
         id="path255" /></g><g
       id="g269"
       transform="matrix(0.84001,0,0,0.84001,115.90354,85.296069)"><path
         d="M 0,0 8.556,14.818 17.112,0 Z"
         style="fill:#d3d2d2;fill-opacity:1;fill-rule:nonzero;stroke:none"
         id="path271" /></g><g
       id="g273"
       transform="matrix(0.84001,0,0,0.84001,115.90354,85.296069)"><path
         d="M 0,0 8.556,14.818 17.112,0 Z"
         style="fill:none;stroke:#231f20;stroke-width:1;stroke-linecap:butt;stroke-linejoin:round;stroke-miterlimit:10;stroke-dasharray:none;stroke-opacity:1"
         id="path275" /></g><g
       id="g277"
       transform="matrix(0.84001,0,0,0.84001,307.16407,85.296069)"><path
         d="M 0,0 8.556,14.818 17.113,0 Z"
         style="fill:#d3d2d2;fill-opacity:1;fill-rule:nonzero;stroke:none"
         id="path279" /></g><g
       id="g281"
       transform="matrix(0.84001,0,0,0.84001,307.16407,85.296069)"><path
         d="M 0,0 8.556,14.818 17.113,0 Z"
         style="fill:none;stroke:#231f20;stroke-width:1;stroke-linecap:butt;stroke-linejoin:round;stroke-miterlimit:10;stroke-dasharray:none;stroke-opacity:1"
         id="path283" /></g><g
       id="g297"
       transform="matrix(0.84001,0,0,0.84001,124.87703,97.743253)"><path
         d="m 0,0 c 0,-1.174 -0.952,-2.126 -2.126,-2.126 -1.175,0 -2.126,0.952 -2.126,2.126 0,1.174 0.951,2.126 2.126,2.126 C -0.952,2.126 0,1.174 0,0"
         style="fill:#ffffff;fill-opacity:1;fill-rule:nonzero;stroke:none"
         id="path299" /></g><g
       id="g301"
       transform="matrix(0.84001,0,0,0.84001,124.87703,97.743253)"><path
         d="m 0,0 c 0,-1.174 -0.952,-2.126 -2.126,-2.126 -1.175,0 -2.126,0.952 -2.126,2.126 0,1.174 0.951,2.126 2.126,2.126 C -0.952,2.126 0,1.174 0,0 Z"
         style="fill:none;stroke:#231f20;stroke-width:1;stroke-linecap:butt;stroke-linejoin:bevel;stroke-miterlimit:10;stroke-dasharray:none;stroke-opacity:1"
         id="path303" /></g><g
       id="g305"
       transform="matrix(0.84001,0,0,0.84001,316.13841,97.743253)"><path
         d="m 0,0 c 0,-1.175 -0.951,-2.126 -2.128,-2.126 -1.174,0 -2.124,0.951 -2.124,2.126 0,1.175 0.95,2.127 2.124,2.127 C -0.951,2.127 0,1.175 0,0"
         style="fill:#ffffff;fill-opacity:1;fill-rule:nonzero;stroke:none"
         id="path307" /></g><g
       id="g309"
       transform="matrix(0.84001,0,0,0.84001,316.13841,97.743253)"><path
         d="m 0,0 c 0,-1.175 -0.951,-2.126 -2.128,-2.126 -1.174,0 -2.124,0.951 -2.124,2.126 0,1.175 0.95,2.127 2.124,2.127 C -0.951,2.127 0,1.175 0,0 Z"
         style="fill:none;stroke:#231f20;stroke-width:1;stroke-linecap:butt;stroke-linejoin:bevel;stroke-miterlimit:10;stroke-dasharray:none;stroke-opacity:1"
         id="path311" /></g><g
       id="g313"
       transform="matrix(0.84001,0,0,0.84001,318.71589,83.652169)"><path
         d="m 0,0 c 0,-1.021 -0.827,-1.848 -1.848,-1.848 -1.019,0 -1.843,0.827 -1.843,1.848 0,1.021 0.824,1.848 1.843,1.848 C -0.827,1.848 0,1.021 0,0"
         style="fill:#ffffff;fill-opacity:1;fill-rule:nonzero;stroke:none"
         id="path315" /></g><g
       id="g317"
       transform="matrix(0.84001,0,0,0.84001,318.71589,83.652169)"><path
         d="m 0,0 c 0,-1.021 -0.827,-1.848 -1.848,-1.848 -1.019,0 -1.843,0.827 -1.843,1.848 0,1.021 0.824,1.848 1.843,1.848 C -0.827,1.848 0,1.021 0,0 Z"
         style="fill:none;stroke:#231f20;stroke-width:0.75;stroke-linecap:butt;stroke-linejoin:bevel;stroke-miterlimit:10;stroke-dasharray:none;stroke-opacity:1"
         id="path319" /></g><g
       id="g321"
       transform="matrix(0.84001,0,0,0.84001,307.16407,82.100083)"><path
         d="M 0,0 H 17.113"
         style="fill:none;stroke:#231f20;stroke-width:0.75;stroke-linecap:square;stroke-linejoin:bevel;stroke-miterlimit:10;stroke-dasharray:none;stroke-opacity:1"
         id="path323" /></g><g
       id="g325"
       transform="matrix(0.84001,0,0,0.84001,321.53942,82.100083)"><path
         d="M 0,0 -3.909,-3.905"
         style="fill:none;stroke:#231f20;stroke-width:0.5;stroke-linecap:butt;stroke-linejoin:round;stroke-miterlimit:10;stroke-dasharray:none;stroke-opacity:1"
         id="path327" /></g><g
       id="g333"
       transform="matrix(0.84001,0,0,0.84001,130.46176,85.296069)"><path
         d="M 0,0 -3.908,-3.909"
         style="fill:none;stroke:#231f20;stroke-width:0.5;stroke-linecap:butt;stroke-linejoin:round;stroke-miterlimit:10;stroke-dasharray:none;stroke-opacity:1"
         id="path335" /></g><g
       id="g337"
       transform="matrix(0.84001,0,0,0.84001,119.00267,85.296069)"><path
         d="M 0,0 -3.908,-3.909"
         style="fill:none;stroke:#231f20;stroke-width:0.5;stroke-linecap:butt;stroke-linejoin:round;stroke-miterlimit:10;stroke-dasharray:none;stroke-opacity:1"
         id="path339" /></g><g
       id="g341"
       transform="matrix(0.84001,0,0,0.84001,124.73138,85.296069)"><path
         d="M 0,0 -3.908,-3.909"
         style="fill:none;stroke:#231f20;stroke-width:0.5;stroke-linecap:butt;stroke-linejoin:round;stroke-miterlimit:10;stroke-dasharray:none;stroke-opacity:1"
         id="path343" /></g><g
       id="g345"
       transform="matrix(0.84001,0,0,-0.84001,165.09125,98.001288)"><path
         d="M 0,0 C 1.458,-3.334 0.7,-6.557 -1.326,-8.583"
         style="fill:none;stroke:#231f20;stroke-width:0.25;stroke-linecap:butt;stroke-linejoin:miter;stroke-miterlimit:10;stroke-dasharray:none;stroke-opacity:1"
         id="path347" /></g><g
       id="g349"
       transform="matrix(0.84001,0,0,-0.84001,242.16259,111.40969)"><path
         d="M 0,0 C 0.984,-3.489 0.285,-7.199 -1.29,-9.614"
         style="fill:none;stroke:#231f20;stroke-width:0.25;stroke-linecap:butt;stroke-linejoin:miter;stroke-miterlimit:10;stroke-dasharray:none;stroke-opacity:1"
         id="path351" /></g><g
       id="g371"
       transform="matrix(0.84001,0,0,0.84001,126.8109,71.177517)"><path
         d="M 0,0 H 218.83"
         style="fill:none;stroke:#231f20;stroke-width:0.5;stroke-linecap:butt;stroke-linejoin:miter;stroke-miterlimit:10;stroke-dasharray:none;stroke-opacity:1"
         id="path373" /></g><g
       id="g375"
       transform="matrix(0.84001,0,0,0.84001,127.6431,70.008559)"><path
         d="M 0,0 -5.42,1.452 0,2.905 Z"
         style="fill:#231f20;fill-opacity:1;fill-rule:nonzero;stroke:none"
         id="path377" /></g><g
       id="g379"
       transform="matrix(0.84001,0,0,0.84001,309.79734,70.008559)"><path
         d="M 0,0 5.421,1.452 0,2.905 Z"
         style="fill:#231f20;fill-opacity:1;fill-rule:nonzero;stroke:none"
         id="path381" /></g><g
       id="g383"
       transform="matrix(0.84001,0,0,0.84001,126.8109,58.857089)"><path
         d="M 0,0 H 222.18"
         style="fill:none;stroke:#231f20;stroke-width:0.5;stroke-linecap:butt;stroke-linejoin:miter;stroke-miterlimit:10;stroke-dasharray:none;stroke-opacity:1"
         id="path385" /></g><g
       id="g387"
       transform="matrix(0.84001,0,0,0.84001,127.6431,57.688132)"><path
         d="M 0,0 -5.42,1.452 0,2.905 Z"
         style="fill:#231f20;fill-opacity:1;fill-rule:nonzero;stroke:none"
         id="path389" /></g><g
       id="g391"
       transform="matrix(0.84001,0,0,0.84001,312.61272,57.688132)"><path
         d="M 0,0 5.42,1.452 0,2.905 Z"
         style="fill:#231f20;fill-opacity:1;fill-rule:nonzero;stroke:none"
         id="path393" /></g><g
       id="g395"
       transform="matrix(0.84001,0,0,-0.84001,238.05192,112.20791)"><path
         d="m 0,0 c -4.957,2.053 -7.537,2.792 -12.741,3.693 -0.46,1.386 -0.71,2.078 -1.244,3.456 -1.805,-2.341 -2.635,-3.545 -4.153,-5.999 -1.078,2.677 -1.69,4.004 -3.064,6.62 -1.521,-2.533 -2.21,-3.823 -3.437,-6.434 -1.375,2.537 -2.135,3.787 -3.8,6.227 -1.224,-2.688 -1.762,-4.049 -2.686,-6.784 -0.829,1.181 -1.26,1.765 -2.16,2.915 C -38.489,2.792 -41.069,2.054 -46.026,0"
         style="fill:none;stroke:#231f20;stroke-width:0.5;stroke-linecap:butt;stroke-linejoin:round;stroke-miterlimit:10;stroke-dasharray:none;stroke-opacity:1"
         id="path397" /></g><g
       id="g399"
       transform="matrix(0.84001,0,0,-0.84001,240.16513,145.66311)"><path
         d="m 0,0 c -4.77,3.465 -7.434,4.71 -12.883,6.232 -0.357,1.469 -0.567,2.205 -1.048,3.668 -2.146,-2.21 -3.11,-3.384 -4.804,-5.814 -0.98,2.795 -1.592,4.183 -3.057,6.888 -1.704,-2.561 -2.438,-3.89 -3.665,-6.584 -1.464,2.573 -2.315,3.829 -4.247,6.226 -1.216,-2.827 -1.703,-4.265 -2.429,-7.139 -0.956,1.132 -1.463,1.685 -2.529,2.755 C -40.111,4.71 -42.776,3.465 -47.544,0"
         style="fill:none;stroke:#231f20;stroke-width:0.5;stroke-linecap:butt;stroke-linejoin:round;stroke-miterlimit:10;stroke-dasharray:none;stroke-opacity:1"
         id="path401" /></g><g
       id="g403"
       transform="matrix(0.84001,0,0,0.84001,351.514,145.54596)"><path
         d="M 0,0 H -28.884"
         style="fill:none;stroke:#3871c1;stroke-width:0.75;stroke-linecap:butt;stroke-linejoin:miter;stroke-miterlimit:10;stroke-dasharray:none;stroke-opacity:1"
         id="path405" /></g><g
       id="g407"
       transform="matrix(0.84001,0,0,0.84001,328.49982,147.2994)"><path
         d="M 0,0 -8.131,-2.177 0,-4.358 Z"
         style="fill:#3871c1;fill-opacity:1;fill-rule:nonzero;stroke:none"
         id="path409" /></g><g
       id="g423"
       transform="matrix(0.84001,0,0,0.84001,348.78808,97.744093)"
       style="fill:#231f20;fill-opacity:1"><path
         d="M 0,0 H -28.884"
         style="fill:#231f20;fill-opacity:1;stroke:#3871c1;stroke-width:0.75;stroke-linecap:butt;stroke-linejoin:miter;stroke-miterlimit:10;stroke-dasharray:none;stroke-opacity:1"
         id="path425" /></g><g
       id="g427"
       transform="matrix(0.84001,0,0,0.84001,325.77391,99.49753)"><path
         d="M 0,0 -8.131,-2.177 0,-4.358 Z"
         style="fill:#3871c1;fill-opacity:1;fill-rule:nonzero;stroke:none"
         id="path429" /></g><g
       inkscape:label=""
       transform="matrix(0.75000209,0,0,-0.75000209,149.11226,191.54249)"
       id="g1424"><g
   id="g8550">
    <g
   style="fill:#000000;fill-opacity:1"
   id="g7623">
      <use
   xlink:href="#symbol1601"
   x="91.925003"
   y="81.962997"
   id="use1676"
   width="100%"
   height="100%" />
    </g>
  </g>
</g><g
       inkscape:label=""
       transform="matrix(0.75000209,0,0,-0.75000209,100.19921,161.05076)"
       id="g7022"><g
   id="g9565">
    <g
   style="fill:#000000;fill-opacity:1"
   id="g3658">
      <use
   xlink:href="#symbol5385"
   x="91.925003"
   y="81.962997"
   id="use6079"
   width="100%"
   height="100%" />
    </g>
  </g>
</g><g
       inkscape:label=""
       transform="matrix(0.75000209,0,0,-0.75000209,176.23378,175.19473)"
       id="g7938"><g
   id="g2966">
    <g
   style="fill:#000000;fill-opacity:1"
   id="g4270">
      <use
   xlink:href="#symbol7649"
   x="91.925003"
   y="81.962997"
   id="use5407"
   width="100%"
   height="100%" />
    </g>
    <g
   style="fill:#000000;fill-opacity:1"
   id="g9069">
      <use
   xlink:href="#symbol617"
   x="100.854"
   y="81.962997"
   id="use2926"
   width="100%"
   height="100%" />
    </g>
    <g
   style="fill:#000000;fill-opacity:1"
   id="g9704">
      <use
   xlink:href="#symbol748"
   x="111.37251"
   y="81.962997"
   id="use6659"
   width="100%"
   height="100%" />
    </g>
    <g
   style="fill:#000000;fill-opacity:1"
   id="g4469">
      <use
   xlink:href="#symbol1133"
   x="116.351"
   y="81.962997"
   id="use3009"
   width="100%"
   height="100%" />
    </g>
  </g>
</g><g
       inkscape:label=""
       transform="matrix(0.75000209,0,0,-0.75000209,138.0188,134.38291)"
       id="g8469"><g
   id="g6722">
    <g
   style="fill:#000000;fill-opacity:1"
   id="g4881">
      <use
   xlink:href="#symbol832"
   x="91.925003"
   y="81.962997"
   id="use3532"
   width="100%"
   height="100%" />
    </g>
    <g
   style="fill:#000000;fill-opacity:1"
   id="g8094">
      <use
   xlink:href="#symbol603"
   x="96.906998"
   y="81.962997"
   id="use4313"
   width="100%"
   height="100%" />
    </g>
    <g
   style="fill:#000000;fill-opacity:1"
   id="g2873">
      <use
   xlink:href="#symbol1628"
   x="105.347"
   y="81.962997"
   id="use5627"
   width="100%"
   height="100%" />
      <use
   xlink:href="#symbol1975"
   x="109.77438"
   y="81.962997"
   id="use8142"
   width="100%"
   height="100%" />
      <use
   xlink:href="#symbol9083"
   x="114.75568"
   y="81.962997"
   id="use2689"
   width="100%"
   height="100%" />
    </g>
    <g
   style="fill:#000000;fill-opacity:1"
   id="g6962">
      <use
   xlink:href="#symbol7617"
   x="120.346"
   y="81.962997"
   id="use6183"
   width="100%"
   height="100%" />
    </g>
  </g>
</g><g
       inkscape:label=""
       transform="matrix(0.75000209,0,0,-0.75000209,145.97377,122.01294)"
       id="g9050"><g
   id="g7760">
    <g
   style="fill:#000000;fill-opacity:1"
   id="g7052">
      <use
   xlink:href="#symbol8303"
   x="91.925003"
   y="81.962997"
   id="use808"
   width="100%"
   height="100%" />
    </g>
    <g
   style="fill:#000000;fill-opacity:1"
   id="g6897">
      <use
   xlink:href="#symbol2210"
   x="96.906998"
   y="81.962997"
   id="use9976"
   width="100%"
   height="100%" />
    </g>
  </g>
</g><g
       inkscape:label=""
       transform="matrix(0.75000209,0,0,-0.75000209,250.84922,162.377)"
       id="g9641"
       style="fill:#3871c1;fill-opacity:1;stroke:none;stroke-opacity:1"><g
   id="g5368"
   style="fill:#3871c1;fill-opacity:1;stroke:none;stroke-opacity:1">
    <g
   style="fill:#3871c1;fill-opacity:1;stroke:none;stroke-opacity:1"
   id="g1997">
      <use
   xlink:href="#symbol6255"
   x="91.925003"
   y="81.962997"
   id="use959"
   width="100%"
   height="100%"
   style="fill:#3871c1;fill-opacity:1;stroke:none;stroke-opacity:1" />
    </g>
  </g>
</g><g
       inkscape:label=""
       transform="matrix(0.75000209,0,0,-0.75000209,253.26098,210.68757)"
       id="g12562"
       style="fill:#3871c1;fill-opacity:1;stroke:none;stroke-opacity:1"><g
   id="g12560"
   style="fill:#3871c1;fill-opacity:1;stroke:none;stroke-opacity:1"
   transform="translate(0.74999978,0.62499982)">
    <g
   style="fill:#3871c1;fill-opacity:1;stroke:none;stroke-opacity:1"
   id="g12558">
      <use
   xlink:href="#symbol6255"
   x="91.925003"
   y="81.962997"
   id="use12556"
   width="100%"
   height="100%"
   style="fill:#3871c1;fill-opacity:1;stroke:none;stroke-opacity:1" />
    </g>
  </g>
</g><path
       style="fill:none;stroke:#000000;stroke-width:0.375001;stroke-linecap:square;stroke-linejoin:miter;stroke-miterlimit:4;stroke-dasharray:none;stroke-opacity:1;marker-end:url(#Arrow2Lend)"
       d="m 92.60887,145.54233 h 14.54526"
       id="path12597" /><path
       style="fill:none;stroke:#000000;stroke-width:0.375001;stroke-linecap:square;stroke-linejoin:miter;stroke-miterlimit:4;stroke-dasharray:none;stroke-opacity:1;marker-end:url(#Arrow2Lend)"
       d="m 92.60887,145.54233 v 14.54529"
       id="path12955" /><g
       inkscape:label=""
       transform="matrix(0.75000209,0,0,-0.75000209,36.000299,201.58701)"
       id="g13592"><g
   id="g3325">
    <g
   style="fill:#000000;fill-opacity:1"
   id="g533"
   transform="translate(-2.2499994,1.2499996)">
      <use
   xlink:href="#symbol5942"
   x="91.925003"
   y="81.962997"
   id="use1208"
   width="100%"
   height="100%" />
    </g>
  </g>
</g><g
       inkscape:label=""
       transform="matrix(0.75000209,0,0,-0.75000209,16.347206,218.49194)"
       id="g14233"><g
   id="g7750">
    <g
   style="fill:#000000;fill-opacity:1"
   id="g6983">
      <use
   xlink:href="#symbol8042"
   x="91.925003"
   y="81.962997"
   id="use1468"
   width="100%"
   height="100%" />
    </g>
  </g>
</g></g></svg>
